<svg xmlns="http://www.w3.org/2000/svg" xmlns:xlink="http://www.w3.org/1999/xlink" viewBox="0 0 1099.33 739.32"><defs><style>.a,.b,.c,.e,.g,.i,.l,.m,.o{fill:none;}.a,.b,.c,.d,.e,.f,.g,.h,.i,.j,.l,.m,.n,.o,.p{stroke-linecap:round;}.a,.b,.c,.d,.e,.f,.g,.h,.i,.j,.l,.m,.n,.o,.p,.s{stroke-miterlimit:10;}.a{stroke-width:3.32px;stroke:url(#a);}.b,.c,.d,.e,.f,.g,.h,.i,.j,.m,.n,.o,.p{stroke:#999;}.b{stroke-width:1.74px;}.c,.d{stroke-width:0.8px;}.d,.f,.h,.j,.n,.p{fill:#ccc;}.e{stroke-width:0.89px;}.f{stroke-width:1.07px;}.g,.h{stroke-width:2.81px;}.i,.j{stroke-width:0.79px;}.k{fill:#999;}.l{stroke-width:4.82px;stroke:url(#b);}.m,.n{stroke-width:3.55px;}.o{stroke-width:2.36px;}.p{stroke-width:2.84px;}.q{fill:#666;}.r{fill:#333;}.s{stroke:#000;}</style><linearGradient id="a" x1="781.34" y1="713.63" x2="1001.66" y2="713.63" gradientTransform="matrix(-1, 0, 0, 1, 1746.94, -171.7)" gradientUnits="userSpaceOnUse"><stop offset="0" stop-color="#666"/><stop offset="0.2" stop-color="#8a8a8a"/><stop offset="0.4" stop-color="#a7a7a7"/><stop offset="0.61" stop-color="#bbb"/><stop offset="0.81" stop-color="#c8c8c8"/><stop offset="1" stop-color="#ccc"/></linearGradient><linearGradient id="b" x1="327.2" y1="314.15" x2="922.08" y2="314.15" gradientUnits="userSpaceOnUse"><stop offset="0"/><stop offset="0.19" stop-color="#202020"/><stop offset="0.4" stop-color="#3f3f3f"/><stop offset="0.61" stop-color="#545454"/><stop offset="0.81" stop-color="#626262"/><stop offset="1" stop-color="#666"/></linearGradient></defs><polyline class="a" points="748.87 668.51 965.87 668 965.3 419.48"/><polyline class="b" points="906.08 668.54 899.41 642.91 924.64 630.99"/><polyline class="c" points="964.7 611.98 953.79 609.73 946.55 604.98 936.51 594.26"/><ellipse class="d" cx="1358.84" cy="763.72" rx="4.07" ry="3.96" transform="translate(-563.39 1018.55) rotate(-45.13)"/><polyline class="e" points="948.93 606.74 939.95 605.12 939.81 622.84 926.66 630.38"/><ellipse class="f" cx="1349.63" cy="799.93" rx="5.41" ry="5.24" transform="translate(-591.77 1022.69) rotate(-45.13)"/><polyline class="g" points="717.29 641.51 658.18 641.65 658.24 666.98 601.94 667.11"/><circle class="h" cx="601.94" cy="667.11" r="14.07"/><polyline class="i" points="637.2 666.66 640.02 649.47 628.56 648.06 629.97 634.13"/><circle class="j" cx="629.97" cy="634.13" r="3.97"/><circle class="k" cx="771.64" cy="668.32" r="71.01"/><polyline class="l" points="919.67 473.92 919.67 154.39 329.61 154.39"/><polyline class="m" points="873.25 452.07 905.2 398.81 905.2 377.51 1008.16 306.5"/><circle class="n" cx="1008.16" cy="306.5" r="17.75"/><polyline class="m" points="934.24 409.12 1008.8 409.12 1008.8 377.17 1079.81 377.17"/><circle class="n" cx="1079.81" cy="377.17" r="17.75"/><polyline class="o" points="976.32 399.22 955.32 351.41 955.32 297.22"/><circle class="p" cx="955.2" cy="288.36" r="14.2"/><circle class="q" cx="889.91" cy="408.78" r="106.51"/><polyline class="m" points="167.64 295.68 114.92 242.96 92.33 265.55 42.12 215.34"/><circle class="n" cx="42.12" cy="215.34" r="17.75"/><polyline class="m" points="145.5 221.34 92.78 168.62 70.18 191.22 19.97 141.01"/><circle class="n" cx="19.97" cy="141.01" r="17.75"/><polyline class="m" points="144.01 20.97 194.22 71.18 171.62 93.78 224.34 146.5"/><circle class="n" cx="144.01" cy="20.97" r="17.75"/><polyline class="m" points="215.34 42.12 265.55 92.33 242.96 114.92 295.68 167.64"/><circle class="n" cx="215.34" cy="42.12" r="17.75"/><polyline class="m" points="122.46 160.11 69.74 107.39 19.53 57.18"/><circle class="n" cx="19.53" cy="57.18" r="17.75"/><polyline class="m" points="160.11 122.46 107.39 69.74 57.18 19.53"/><circle class="n" cx="57.18" cy="19.53" r="17.75"/><circle class="r" cx="210.39" cy="212.16" r="142.01"/><rect class="s" x="164.32" y="204.22" width="720" height="408"/></svg>