<svg xmlns="http://www.w3.org/2000/svg" xmlns:xlink="http://www.w3.org/1999/xlink" xmlns:lucid="lucid" width="1256" height="840.5"><g transform="translate(-40 -40)" lucid:page-tab-id="0_0"><path d="M0 0h1870.87v1322.83H0z" fill="#fff"/><path d="M110 66c0-3.3 2.7-6 6-6h88c3.3 0 6 2.7 6 6v88c0 3.3-2.7 6-6 6h-88c-3.3 0-6-2.7-6-6z" stroke="#3a414a" fill="#fff"/><use xlink:href="#a" transform="matrix(1,0,0,1,122,72) translate(9.8888888888889 42.70833333333333)"/><path d="M211 110h102.12" stroke="#3a414a" fill="none"/><path d="M211 110.5h-.5v-1h.5z" stroke="#3a414a" stroke-width=".05" fill="#3a414a"/><path d="M327.88 110l-14.26 4.64v-9.28z" stroke="#3a414a" fill="#3a414a"/><path d="M330 66c0-3.3 2.7-6 6-6h148c3.3 0 6 2.7 6 6v88c0 3.3-2.7 6-6 6H336c-3.3 0-6-2.7-6-6z" stroke="#3a414a" fill="#fff"/><use xlink:href="#b" transform="matrix(1,0,0,1,342,72) translate(11.111111111111136 42.70833333333333)"/><use xlink:href="#c" transform="matrix(1,0,0,1,342,72) translate(73.18518518518519 42.70833333333333)"/><path d="M60 240.5c0-3.3 2.7-6 6-6h188c3.3 0 6 2.7 6 6v140c0 3.3-2.7 6-6 6H66c-3.3 0-6-2.7-6-6z" stroke="#3a414a" fill="#fff"/><use xlink:href="#d" transform="matrix(1,0,0,1,72,246.50000000000003) translate(16.925925925925952 37.33333333333333)"/><use xlink:href="#e" transform="matrix(1,0,0,1,72,246.50000000000003) translate(5.111111111111157 69.33333333333331)"/><use xlink:href="#f" transform="matrix(1,0,0,1,72,246.50000000000003) translate(70.22222222222223 69.33333333333331)"/><use xlink:href="#g" transform="matrix(1,0,0,1,72,246.50000000000003) translate(59.14814814814816 101.3333333333333)"/><path d="M410 161v30.25c0 3.3-2.7 6-6 6H166c-3.3 0-6 2.7-6 6v14.37" stroke="#3a414a" fill="none"/><path d="M410.5 161h-1v-.5h1z" stroke="#3a414a" stroke-width=".05" fill="#3a414a"/><path d="M160 232.38l-4.64-14.26h9.28z" stroke="#3a414a" fill="#3a414a"/><path d="M520 266.5c0-3.3 2.7-6 6-6h128c3.3 0 6 2.7 6 6v88c0 3.3-2.7 6-6 6H526c-3.3 0-6-2.7-6-6z" stroke="#3a414a" fill="#fff"/><use xlink:href="#h" transform="matrix(1,0,0,1,532,272.5) translate(31.8888888888889 21.333333333333325)"/><use xlink:href="#g" transform="matrix(1,0,0,1,532,272.5) translate(29.14814814814816 53.333333333333314)"/><path d="M360 266.5c0-3.3 2.7-6 6-6h88c3.3 0 6 2.7 6 6v88c0 3.3-2.7 6-6 6h-88c-3.3 0-6-2.7-6-6z" stroke="#3a414a" fill="#fff"/><use xlink:href="#i" transform="matrix(1,0,0,1,372,272.5) translate(10.666666666666679 21.333333333333325)"/><use xlink:href="#j" transform="matrix(1,0,0,1,372,272.5) translate(9.148148148148163 53.333333333333314)"/><path d="M343.12 312v1h-10.9v-1zM261 311v-1h26.78v1z" stroke="#3a414a" stroke-width=".05" fill="#3a414a"/><path d="M261 311h-.5v-1h.5z" fill="#3a414a"/><path d="M261.04 311.02h-.56v-1.04h.56zm-.52-1v.96h.47v-.96z" stroke="#3a414a" stroke-width=".05" fill="#3a414a"/><path d="M357.88 312.5l-14.26 4.64v-9.28z" fill="#3a414a"/><path d="M359.5 312.5l-16.38 5.32v-10.64zm-15.38 3.95l12.14-3.95-12.14-3.95z" stroke="#3a414a" stroke-width=".05" fill="#3a414a"/><use xlink:href="#k" transform="matrix(1,0,0,1,287.77777777777777,298.1666666666667) translate(0 17.777777777777768)"/><path d="M160.5 404.43l.77 2.84 1.96 1.96 2.84.77h205.3v1H165.92l-3.22-.87-2.33-2.34-.87-3.23V387.5h1zm430 .14l-.87 3.22-2.34 2.33-3.23.87H404.64v-1h179.3l2.83-.77 1.96-1.96.77-2.84v-27.05h1z" stroke="#3a414a" stroke-width=".05" fill="#3a414a"/><path d="M160.5 387.5h-1v-.5h1z" fill="#3a414a"/><path d="M160.53 387.54h-1.06v-.56h1.06zm-1-.52v.47h.94V387z" stroke="#3a414a" stroke-width=".05" fill="#3a414a"/><path d="M594.64 376.88h-9.28l4.64-14.26z" fill="#3a414a"/><path d="M595.32 377.38h-10.64L590 361zm-9.27-1h7.9L590 364.24z" stroke="#3a414a" stroke-width=".05" fill="#3a414a"/><use xlink:href="#l" transform="matrix(1,0,0,1,371.3641975308642,397.1666666666667) translate(0 17.77777777777777)"/><path d="M461 310.5h42.12" stroke="#3a414a" fill="none"/><path d="M461 311h-.5v-1h.5z" stroke="#3a414a" stroke-width=".05" fill="#3a414a"/><path d="M517.88 310.5l-14.26 4.64v-9.28z" stroke="#3a414a" fill="#3a414a"/><path d="M720 266.5c0-3.3 2.7-6 6-6h128c3.3 0 6 2.7 6 6v88c0 3.3-2.7 6-6 6H726c-3.3 0-6-2.7-6-6z" stroke="#3a414a" fill="#fff"/><use xlink:href="#m" transform="matrix(1,0,0,1,732,272.5) translate(6.259259259259281 21.333333333333325)"/><use xlink:href="#n" transform="matrix(1,0,0,1,732,272.5) translate(62.48148148148148 21.333333333333325)"/><use xlink:href="#o" transform="matrix(1,0,0,1,732,272.5) translate(24.703703703703717 53.333333333333314)"/><path d="M661 310.5h42.12" stroke="#3a414a" fill="none"/><path d="M661 311h-.5v-1h.5z" stroke="#3a414a" stroke-width=".05" fill="#3a414a"/><path d="M717.88 310.5l-14.26 4.64v-9.28z" stroke="#3a414a" fill="#3a414a"/><path d="M920 266.5c0-3.3 2.7-6 6-6h128c3.3 0 6 2.7 6 6v88c0 3.3-2.7 6-6 6H926c-3.3 0-6-2.7-6-6z" stroke="#3a414a" fill="#fff"/><use xlink:href="#p" transform="matrix(1,0,0,1,932,272.5) translate(0.0740740740740975 21.333333333333325)"/><use xlink:href="#q" transform="matrix(1,0,0,1,932,272.5) translate(63.7037037037037 21.333333333333325)"/><use xlink:href="#r" transform="matrix(1,0,0,1,932,272.5) translate(3.2222222222222427 53.333333333333314)"/><path d="M861 310.5h42.12" stroke="#3a414a" fill="none"/><path d="M861 311h-.5v-1h.5z" stroke="#3a414a" stroke-width=".05" fill="#3a414a"/><path d="M917.88 310.5l-14.26 4.64v-9.28z" stroke="#3a414a" fill="#3a414a"/><path d="M787.3 220.37l2.33 2.34.87 3.23v33.57h-1v-33.43l-.77-2.84-1.96-1.96-2.84-.77H714.3v-1h69.77zm-120.95.13h-69.62l-2.83.77-1.97 1.96-.76 2.84v17.55h-1v-17.7l.87-3.2 2.34-2.35 3.22-.87h69.75z" stroke="#3a414a" stroke-width=".05" fill="#3a414a"/><path d="M790.5 260h-1v-.5h1z" fill="#3a414a"/><path d="M790.52 260.02h-1.04v-.56h1.04zm-1-.5v.46h.96v-.47z" stroke="#3a414a" stroke-width=".05" fill="#3a414a"/><path d="M590.67 258.38l-4.64-14.26h9.27z" fill="#fff"/><path d="M590.67 260l-5.33-16.38H596zm-3.95-15.38l3.95 12.14 3.94-12.14z" stroke="#3a414a" stroke-width=".05" fill="#3a414a"/><use xlink:href="#s" transform="matrix(1,0,0,1,666.3518518518518,206.66666666666666) translate(0 17.77777777777778)"/><path d="M990 259.5V226c0-3.3-2.7-6-6-6H806.38" stroke="#3a414a" fill="none"/><path d="M990.5 260h-1v-.5h1z" stroke="#3a414a" stroke-width=".05" fill="#3a414a"/><path d="M791.62 220l14.26-4.64v9.28zM1120 256.5c0-3.3 2.7-6 6-6h128c3.3 0 6 2.7 6 6v108c0 3.3-2.7 6-6 6h-128c-3.3 0-6-2.7-6-6z" stroke="#3a414a" fill="#fff"/><use xlink:href="#i" transform="matrix(1,0,0,1,1132,262.5) translate(30.66666666666668 36.33333333333333)"/><use xlink:href="#t" transform="matrix(1,0,0,1,1132,262.5) translate(15.074074074074097 68.33333333333331)"/><path d="M1061 310.5h42.12" stroke="#3a414a" fill="none"/><path d="M1061 311h-.5v-1h.5z" stroke="#3a414a" stroke-width=".05" fill="#3a414a"/><path d="M1117.88 310.5l-14.26 4.64v-9.28z" stroke="#3a414a" fill="#3a414a"/><path d="M1120 486.5c0-3.3 2.7-6 6-6h128c3.3 0 6 2.7 6 6v88c0 3.3-2.7 6-6 6h-128c-3.3 0-6-2.7-6-6z" stroke="#3a414a" fill="#fff"/><use xlink:href="#u" transform="matrix(1,0,0,1,1132,492.5) translate(12.111111111111128 21.333333333333325)"/><use xlink:href="#g" transform="matrix(1,0,0,1,1132,492.5) translate(29.14814814814816 53.333333333333314)"/><path d="M1190 371.5v92.12" stroke="#3a414a" fill="none"/><path d="M1190.5 371.5h-1v-.5h1z" stroke="#3a414a" stroke-width=".05" fill="#3a414a"/><path d="M1190 478.38l-4.64-14.26h9.28z" stroke="#3a414a" fill="#3a414a"/><path d="M720 476.5c0-3.3 2.7-6 6-6h128c3.3 0 6 2.7 6 6v108c0 3.3-2.7 6-6 6H726c-3.3 0-6-2.7-6-6z" stroke="#3a414a" fill="#fff"/><use xlink:href="#v" transform="matrix(1,0,0,1,732,482.5) translate(33.5925925925926 21.333333333333325)"/><use xlink:href="#w" transform="matrix(1,0,0,1,732,482.5) translate(7.740740740740762 53.333333333333314)"/><use xlink:href="#r" transform="matrix(1,0,0,1,732,482.5) translate(3.2222222222222427 85.3333333333333)"/><path d="M920 486.5c0-3.3 2.7-6 6-6h128c3.3 0 6 2.7 6 6v88c0 3.3-2.7 6-6 6H926c-3.3 0-6-2.7-6-6z" stroke="#3a414a" fill="#fff"/><use xlink:href="#x" transform="matrix(1,0,0,1,932,492.5) translate(10.925925925925945 21.333333333333325)"/><use xlink:href="#g" transform="matrix(1,0,0,1,932,492.5) translate(29.14814814814816 53.333333333333314)"/><path d="M990.5 614.93l.77 2.84 1.96 1.96 2.84.77h61.08v1h-61.22l-3.22-.87-2.33-2.34-.87-3.23V581.5h1zm172.67.14l-.87 3.22-2.35 2.33-3.22.87h-61.2v-1h61.07l2.84-.77 1.96-1.96.77-2.84v-17.55h1z" stroke="#3a414a" stroke-width=".05" fill="#3a414a"/><path d="M990.5 581.5h-1v-.5h1z" fill="#3a414a"/><path d="M990.52 581.54h-1.04v-.56h1.04zm-1-.5v.45h.96V581z" stroke="#3a414a" stroke-width=".05" fill="#3a414a"/><path d="M1167.3 596.88h-9.27l4.64-14.26z" fill="#fff"/><path d="M1168 597.38h-10.66l5.33-16.38zm-9.28-1h7.9l-3.95-12.14z" stroke="#3a414a" stroke-width=".05" fill="#3a414a"/><use xlink:href="#y" transform="matrix(1,0,0,1,1057.1481481481483,610.3333333333334) translate(0 14.222222222222223)"/><path d="M1119 530.5h-42.12" stroke="#3a414a" fill="none"/><path d="M1119.5 531h-.5v-1h.5z" stroke="#3a414a" stroke-width=".05" fill="#3a414a"/><path d="M1062.12 530.5l14.26-4.64v9.28z" stroke="#3a414a" fill="#3a414a"/><path d="M919 530.5h-42.12" stroke="#3a414a" fill="none"/><path d="M919.5 531h-.5v-1h.5z" stroke="#3a414a" stroke-width=".05" fill="#3a414a"/><path d="M862.12 530.5l14.26-4.64v9.28z" stroke="#3a414a" fill="#3a414a"/><path d="M920 746.5c0-3.3 2.7-6 6-6h128c3.3 0 6 2.7 6 6v108c0 3.3-2.7 6-6 6H926c-3.3 0-6-2.7-6-6z" stroke="#3a414a" fill="#fff"/><use xlink:href="#z" transform="matrix(1,0,0,1,932,752.5) translate(20.29629629629632 36.33333333333333)"/><use xlink:href="#A" transform="matrix(1,0,0,1,932,752.5) translate(32.11111111111113 68.33333333333331)"/><path d="M790.5 794.43l.77 2.84 1.96 1.96 2.84.77h107.05v1h-107.2l-3.2-.87-2.35-2.34-.87-3.23V657.83h1zm0-157.93h-1v-45h1z" stroke="#3a414a" stroke-width=".05" fill="#3a414a"/><path d="M790.5 591.5h-1v-.5h1z" fill="#3a414a"/><path d="M790.52 591.54h-1.04v-.56h1.04zm-1-.5v.45h.96V591z" stroke="#3a414a" stroke-width=".05" fill="#3a414a"/><path d="M917.88 800.5l-14.26 4.64v-9.28z" fill="#fff"/><path d="M919.5 800.5l-16.38 5.32v-10.64zm-15.38 3.95l12.14-3.95-12.14-3.95z" stroke="#3a414a" stroke-width=".05" fill="#3a414a"/><use xlink:href="#y" transform="matrix(1,0,0,1,770.8148148148148,636.5) translate(0 14.222222222222223)"/><path d="M1287.3 310.87l2.33 2.34.87 3.23v478.14l-.87 3.22-2.34 2.33-3.23.87H1061v-1h222.93l2.84-.77 1.96-1.96.77-2.84V316.57l-.77-2.84-1.96-1.96-2.84-.77h-7.05v-1h7.2z" stroke="#3a414a" stroke-width=".05" fill="#3a414a"/><path d="M1061 801h-.5v-1h.5z" fill="#3a414a"/><path d="M1061.04 801.02h-.57V800h.57zm-.5-1v.96h.45V800z" stroke="#3a414a" stroke-width=".05" fill="#3a414a"/><path d="M1276.38 315.14l-14.26-4.64 14.26-4.64z" fill="#fff"/><path d="M1276.88 315.82l-16.38-5.32 16.38-5.32zm-13.14-5.32l12.14 3.95v-7.9z" stroke="#3a414a" stroke-width=".05" fill="#3a414a"/><path d="M1120 666.5c0-3.3 2.7-6 6-6h128c3.3 0 6 2.7 6 6v88c0 3.3-2.7 6-6 6h-128c-3.3 0-6-2.7-6-6z" stroke="#3a414a" fill="#fff"/><use xlink:href="#B" transform="matrix(1,0,0,1,1132,672.5) translate(34.296296296296305 21.333333333333325)"/><use xlink:href="#C" transform="matrix(1,0,0,1,1132,672.5) translate(8.481481481481502 53.333333333333314)"/><path d="M1227.17 643.62h-1v-12.45h1zm0-33.8h-1V581.5h1z" stroke="#3a414a" stroke-width=".05" fill="#3a414a"/><path d="M1227.17 581.5h-1v-.5h1z" fill="#3a414a"/><path d="M1227.2 581.54h-1.06v-.56h1.05zm-1-.5v.45h.94V581z" stroke="#3a414a" stroke-width=".05" fill="#3a414a"/><path d="M1226.67 658.38l-4.64-14.26h9.27z" fill="#3a414a"/><path d="M1226.67 660l-5.33-16.38H1232zm-3.95-15.38l3.95 12.14 3.94-12.14z" stroke="#3a414a" stroke-width=".05" fill="#3a414a"/><use xlink:href="#D" transform="matrix(1,0,0,1,1205.4814814814815,609.8333333333334) translate(0 14.222222222222223)"/><path d="M520 476.5c0-3.3 2.7-6 6-6h128c3.3 0 6 2.7 6 6v108c0 3.3-2.7 6-6 6H526c-3.3 0-6-2.7-6-6z" stroke="#3a414a" fill="#fff"/><use xlink:href="#E" transform="matrix(1,0,0,1,532,482.5) translate(16.55555555555557 36.33333333333333)"/><use xlink:href="#F" transform="matrix(1,0,0,1,532,482.5) translate(21.81481481481483 68.33333333333331)"/><path d="M719 530.5h-42.12" stroke="#3a414a" fill="none"/><path d="M719.5 531h-.5v-1h.5z" stroke="#3a414a" stroke-width=".05" fill="#3a414a"/><path d="M662.12 530.5l14.26-4.64v9.28z" stroke="#3a414a" fill="#3a414a"/><path d="M320 476.5c0-3.3 2.7-6 6-6h128c3.3 0 6 2.7 6 6v108c0 3.3-2.7 6-6 6H326c-3.3 0-6-2.7-6-6z" stroke="#3a414a" fill="#fff"/><use xlink:href="#G" transform="matrix(1,0,0,1,332,482.5) translate(20.259259259259274 21.333333333333325)"/><use xlink:href="#H" transform="matrix(1,0,0,1,332,482.5) translate(32.11111111111113 53.333333333333314)"/><use xlink:href="#I" transform="matrix(1,0,0,1,332,482.5) translate(23.296296296296312 85.3333333333333)"/><path d="M519 530.5h-42.12" stroke="#3a414a" fill="none"/><path d="M519.5 531h-.5v-1h.5z" stroke="#3a414a" stroke-width=".05" fill="#3a414a"/><path d="M462.12 530.5l14.26-4.64v9.28z" stroke="#3a414a" fill="#3a414a"/><path d="M390.5 794.43l.77 2.84 1.96 1.96 2.84.77H789.5v1H395.93l-3.22-.87-2.33-2.34-.87-3.23V656.5h1zm0-159.26h-1V591.5h1z" stroke="#3a414a" stroke-width=".05" fill="#3a414a"/><path d="M390.5 591.5h-1v-.5h1z" fill="#3a414a"/><path d="M390.52 591.54h-1.04v-.56h1.04zm-1-.5v.45h.96V591zM790 801h-.5v-1h.5z" stroke="#3a414a" stroke-width=".05" fill="#3a414a"/><g><use xlink:href="#J" transform="matrix(1,0,0,1,336.2716049382716,635.1666666666667) translate(0 14.222222222222223)"/><use xlink:href="#K" transform="matrix(1,0,0,1,336.2716049382716,635.1666666666667) translate(31.555555555555557 14.222222222222223)"/></g><path d="M120 476.5c0-3.3 2.7-6 6-6h128c3.3 0 6 2.7 6 6v108c0 3.3-2.7 6-6 6H126c-3.3 0-6-2.7-6-6z" stroke="#3a414a" fill="#fff"/><g><use xlink:href="#L" transform="matrix(1,0,0,1,132,482.5) translate(4.740740740740762 36.33333333333333)"/><use xlink:href="#M" transform="matrix(1,0,0,1,132,482.5) translate(81.62962962962962 36.33333333333333)"/><use xlink:href="#I" transform="matrix(1,0,0,1,132,482.5) translate(23.296296296296312 68.33333333333331)"/></g><path d="M319 530.5h-42.12" stroke="#3a414a" fill="none"/><path d="M319.5 531h-.5v-1h.5z" stroke="#3a414a" stroke-width=".05" fill="#3a414a"/><path d="M262.12 530.5l14.26-4.64v9.28z" stroke="#3a414a" fill="#3a414a"/><path d="M1140.5 479.5h-1v-58.33h1zm-515.23-72.23l1.96 1.96 2.84.77h444.57v1h-444.7l-3.23-.87-2.33-2.34-.87-3.23V361.5h1v42.93z" stroke="#3a414a" stroke-width=".05" fill="#3a414a"/><path d="M1140.5 480h-1v-.5h1z" fill="#3a414a"/><path d="M1140.53 480.02h-1.06v-.56h1.06zm-1-.5v.46h.94v-.47z" stroke="#3a414a" stroke-width=".05" fill="#3a414a"/><path d="M624.5 361.5h-1v-.5h1z" fill="#3a414a"/><path d="M624.52 361.54h-1.04v-.56h1.04zm-1-.52v.47h.96V361z" stroke="#3a414a" stroke-width=".05" fill="#3a414a"/><g><use xlink:href="#N" transform="matrix(1,0,0,1,1074.641975308642,399.8333333333333) translate(0 14.222222222222223)"/><use xlink:href="#O" transform="matrix(1,0,0,1,1074.641975308642,399.8333333333333) translate(46.320987654320994 14.222222222222223)"/></g><path d="M190.5 794.43l.77 2.84 1.96 1.96 2.84.77H389.5v1H195.93l-3.22-.87-2.33-2.34-.87-3.23V591.5h1z" stroke="#3a414a" stroke-width=".05" fill="#3a414a"/><path d="M190.5 591.5h-1v-.5h1z" fill="#3a414a"/><path d="M190.53 591.54h-1.06v-.56h1.06zm-1-.5v.45h.94V591zM390 801h-.5v-1h.5z" stroke="#3a414a" stroke-width=".05" fill="#3a414a"/><defs><path fill="#3a414a" d="M185-189c-5-48-123-54-124 2 14 75 158 14 163 119 3 78-121 87-175 55-17-10-28-26-33-46l33-7c5 56 141 63 141-1 0-78-155-14-162-118-5-82 145-84 179-34 5 7 8 16 11 25" id="P"/><path fill="#3a414a" d="M59-47c-2 24 18 29 38 22v24C64 9 27 4 27-40v-127H5v-23h24l9-43h21v43h35v23H59v120" id="Q"/><path fill="#3a414a" d="M141-36C126-15 110 5 73 4 37 3 15-17 15-53c-1-64 63-63 125-63 3-35-9-54-41-54-24 1-41 7-42 31l-33-3c5-37 33-52 76-52 45 0 72 20 72 64v82c-1 20 7 32 28 27v20c-31 9-61-2-59-35zM48-53c0 20 12 33 32 33 41-3 63-29 60-74-43 2-92-5-92 41" id="R"/><path fill="#3a414a" d="M114-163C36-179 61-72 57 0H25l-1-190h30c1 12-1 29 2 39 6-27 23-49 58-41v29" id="S"/><g id="a"><use transform="matrix(0.07407407407407404,0,0,0.07407407407407404,0,0)" xlink:href="#P"/><use transform="matrix(0.07407407407407404,0,0,0.07407407407407404,17.77777777777777,0)" xlink:href="#Q"/><use transform="matrix(0.07407407407407404,0,0,0.07407407407407404,25.185185185185173,0)" xlink:href="#R"/><use transform="matrix(0.07407407407407404,0,0,0.07407407407407404,39.999999999999986,0)" xlink:href="#S"/><use transform="matrix(0.07407407407407404,0,0,0.07407407407407404,48.814814814814795,0)" xlink:href="#Q"/></g><path fill="#3a414a" d="M30-248c87 1 191-15 191 75 0 78-77 80-158 76V0H30v-248zm33 125c57 0 124 11 124-50 0-59-68-47-124-48v98" id="T"/><path fill="#3a414a" d="M24-231v-30h32v30H24zM24 0v-190h32V0H24" id="U"/><path fill="#3a414a" d="M117-194c89-4 53 116 60 194h-32v-121c0-31-8-49-39-48C34-167 62-67 57 0H25l-1-190h30c1 10-1 24 2 32 11-22 29-35 61-36" id="V"/><g id="b"><use transform="matrix(0.07407407407407404,0,0,0.07407407407407404,0,0)" xlink:href="#T"/><use transform="matrix(0.07407407407407404,0,0,0.07407407407407404,17.77777777777777,0)" xlink:href="#S"/><use transform="matrix(0.07407407407407404,0,0,0.07407407407407404,26.59259259259258,0)" xlink:href="#U"/><use transform="matrix(0.07407407407407404,0,0,0.07407407407407404,32.44444444444443,0)" xlink:href="#V"/><use transform="matrix(0.07407407407407404,0,0,0.07407407407407404,47.25925925925924,0)" xlink:href="#Q"/></g><path fill="#3a414a" d="M100-194c62-1 85 37 85 99 1 63-27 99-86 99S16-35 15-95c0-66 28-99 85-99zM99-20c44 1 53-31 53-75 0-43-8-75-51-75s-53 32-53 75 10 74 51 75" id="W"/><g id="c"><use transform="matrix(0.07407407407407404,0,0,0.07407407407407404,0,0)" xlink:href="#U"/><use transform="matrix(0.07407407407407404,0,0,0.07407407407407404,5.851851851851849,0)" xlink:href="#V"/><use transform="matrix(0.07407407407407404,0,0,0.07407407407407404,20.666666666666657,0)" xlink:href="#Q"/><use transform="matrix(0.07407407407407404,0,0,0.07407407407407404,28.074074074074062,0)" xlink:href="#S"/><use transform="matrix(0.07407407407407404,0,0,0.07407407407407404,36.88888888888887,0)" xlink:href="#W"/></g><path fill="#3a414a" d="M160-131c35 5 61 23 61 61C221 17 115-2 30 0v-248c76 3 177-17 177 60 0 33-19 50-47 57zm-97-11c50-1 110 9 110-42 0-47-63-36-110-37v79zm0 115c55-2 124 14 124-45 0-56-70-42-124-44v89" id="X"/><path fill="#3a414a" d="M96-169c-40 0-48 33-48 73s9 75 48 75c24 0 41-14 43-38l32 2c-6 37-31 61-74 61-59 0-76-41-82-99-10-93 101-131 147-64 4 7 5 14 7 22l-32 3c-4-21-16-35-41-35" id="Y"/><path fill="#3a414a" d="M143 0L79-87 56-68V0H24v-261h32v163l83-92h37l-77 82L181 0h-38" id="Z"/><path fill="#3a414a" d="M177-190C167-65 218 103 67 71c-23-6-38-20-44-43l32-5c15 47 100 32 89-28v-30C133-14 115 1 83 1 29 1 15-40 15-95c0-56 16-97 71-98 29-1 48 16 59 35 1-10 0-23 2-32h30zM94-22c36 0 50-32 50-73 0-42-14-75-50-75-39 0-46 34-46 75s6 73 46 73" id="aa"/><path fill="#3a414a" d="M84 4C-5 8 30-112 23-190h32v120c0 31 7 50 39 49 72-2 45-101 50-169h31l1 190h-30c-1-10 1-25-2-33-11 22-28 36-60 37" id="ab"/><path fill="#3a414a" d="M85-194c31 0 48 13 60 33l-1-100h32l1 261h-30c-2-10 0-23-3-31C134-8 116 4 85 4 32 4 16-35 15-94c0-66 23-100 70-100zm9 24c-40 0-46 34-46 75 0 40 6 74 45 74 42 0 51-32 51-76 0-42-9-74-50-73" id="ac"/><g id="d"><use transform="matrix(0.07407407407407404,0,0,0.07407407407407404,0,0)" xlink:href="#X"/><use transform="matrix(0.07407407407407404,0,0,0.07407407407407404,17.77777777777777,0)" xlink:href="#R"/><use transform="matrix(0.07407407407407404,0,0,0.07407407407407404,32.59259259259258,0)" xlink:href="#Y"/><use transform="matrix(0.07407407407407404,0,0,0.07407407407407404,45.92592592592591,0)" xlink:href="#Z"/><use transform="matrix(0.07407407407407404,0,0,0.07407407407407404,59.259259259259245,0)" xlink:href="#aa"/><use transform="matrix(0.07407407407407404,0,0,0.07407407407407404,74.07407407407405,0)" xlink:href="#S"/><use transform="matrix(0.07407407407407404,0,0,0.07407407407407404,82.88888888888886,0)" xlink:href="#W"/><use transform="matrix(0.07407407407407404,0,0,0.07407407407407404,97.70370370370367,0)" xlink:href="#ab"/><use transform="matrix(0.07407407407407404,0,0,0.07407407407407404,112.51851851851848,0)" xlink:href="#V"/><use transform="matrix(0.07407407407407404,0,0,0.07407407407407404,127.33333333333327,0)" xlink:href="#ac"/></g><path fill="#3a414a" d="M135-143c-3-34-86-38-87 0 15 53 115 12 119 90S17 21 10-45l28-5c4 36 97 45 98 0-10-56-113-15-118-90-4-57 82-63 122-42 12 7 21 19 24 35" id="ad"/><path fill="#3a414a" d="M179-190L93 31C79 59 56 82 12 73V49c39 6 53-20 64-50L1-190h34L92-34l54-156h33" id="ae"/><g id="e"><use transform="matrix(0.07407407407407404,0,0,0.07407407407407404,0,0)" xlink:href="#ad"/><use transform="matrix(0.07407407407407404,0,0,0.07407407407407404,13.333333333333327,0)" xlink:href="#Q"/><use transform="matrix(0.07407407407407404,0,0,0.07407407407407404,20.740740740740733,0)" xlink:href="#W"/><use transform="matrix(0.07407407407407404,0,0,0.07407407407407404,35.555555555555536,0)" xlink:href="#S"/><use transform="matrix(0.07407407407407404,0,0,0.07407407407407404,44.370370370370345,0)" xlink:href="#ae"/></g><path fill="#3a414a" d="M145-31C134-9 116 4 85 4 32 4 16-35 15-94c0-59 17-99 70-100 32-1 48 14 60 33 0-11-1-24 2-32h30l-1 268h-32zM93-21c41 0 51-33 51-76s-8-73-50-73c-40 0-46 35-46 75s5 74 45 74" id="af"/><path fill="#3a414a" d="M100-194c63 0 86 42 84 106H49c0 40 14 67 53 68 26 1 43-12 49-29l28 8c-11 28-37 45-77 45C44 4 14-33 15-96c1-61 26-98 85-98zm52 81c6-60-76-77-97-28-3 7-6 17-6 28h103" id="ag"/><g id="f"><use transform="matrix(0.07407407407407404,0,0,0.07407407407407404,0,0)" xlink:href="#af"/><use transform="matrix(0.07407407407407404,0,0,0.07407407407407404,14.814814814814808,0)" xlink:href="#ab"/><use transform="matrix(0.07407407407407404,0,0,0.07407407407407404,29.629629629629616,0)" xlink:href="#ag"/><use transform="matrix(0.07407407407407404,0,0,0.07407407407407404,44.44444444444443,0)" xlink:href="#ad"/><use transform="matrix(0.07407407407407404,0,0,0.07407407407407404,57.77777777777775,0)" xlink:href="#Q"/><use transform="matrix(0.07407407407407404,0,0,0.07407407407407404,65.18518518518515,0)" xlink:href="#U"/><use transform="matrix(0.07407407407407404,0,0,0.07407407407407404,71.037037037037,0)" xlink:href="#W"/><use transform="matrix(0.07407407407407404,0,0,0.07407407407407404,85.8518518518518,0)" xlink:href="#V"/></g><path fill="#3a414a" d="M115-194c55 1 70 41 70 98S169 2 115 4C84 4 66-9 55-30l1 105H24l-1-265h31l2 30c10-21 28-34 59-34zm-8 174c40 0 45-34 45-75s-6-73-45-74c-42 0-51 32-51 76 0 43 10 73 51 73" id="ah"/><g id="g"><use transform="matrix(0.07407407407407404,0,0,0.07407407407407404,0,0)" xlink:href="#U"/><use transform="matrix(0.07407407407407404,0,0,0.07407407407407404,5.851851851851849,0)" xlink:href="#V"/><use transform="matrix(0.07407407407407404,0,0,0.07407407407407404,20.666666666666657,0)" xlink:href="#ah"/><use transform="matrix(0.07407407407407404,0,0,0.07407407407407404,35.48148148148147,0)" xlink:href="#ab"/><use transform="matrix(0.07407407407407404,0,0,0.07407407407407404,50.296296296296276,0)" xlink:href="#Q"/></g><path fill="#3a414a" d="M232-93c-1 65-40 97-104 97C67 4 28-28 28-90v-158h33c8 89-33 224 67 224 102 0 64-133 71-224h33v155" id="ai"/><path fill="#3a414a" d="M233-177c-1 41-23 64-60 70L243 0h-38l-65-103H63V0H30v-248c88 3 205-21 203 71zM63-129c60-2 137 13 137-47 0-61-80-42-137-45v92" id="aj"/><path fill="#3a414a" d="M30 0v-248h33v221h125V0H30" id="ak"/><g id="h"><use transform="matrix(0.07407407407407404,0,0,0.07407407407407404,0,0)" xlink:href="#ai"/><use transform="matrix(0.07407407407407404,0,0,0.07407407407407404,19.185185185185176,0)" xlink:href="#aj"/><use transform="matrix(0.07407407407407404,0,0,0.07407407407407404,38.37037037037035,0)" xlink:href="#ak"/></g><g id="i"><use transform="matrix(0.07407407407407404,0,0,0.07407407407407404,0,0)" xlink:href="#T"/><use transform="matrix(0.07407407407407404,0,0,0.07407407407407404,17.77777777777777,0)" xlink:href="#S"/><use transform="matrix(0.07407407407407404,0,0,0.07407407407407404,26.59259259259258,0)" xlink:href="#U"/><use transform="matrix(0.07407407407407404,0,0,0.07407407407407404,32.44444444444443,0)" xlink:href="#V"/><use transform="matrix(0.07407407407407404,0,0,0.07407407407407404,47.25925925925924,0)" xlink:href="#Q"/></g><g id="j"><use transform="matrix(0.07407407407407404,0,0,0.07407407407407404,0,0)" xlink:href="#ad"/><use transform="matrix(0.07407407407407404,0,0,0.07407407407407404,13.333333333333327,0)" xlink:href="#Q"/><use transform="matrix(0.07407407407407404,0,0,0.07407407407407404,20.740740740740733,0)" xlink:href="#W"/><use transform="matrix(0.07407407407407404,0,0,0.07407407407407404,35.555555555555536,0)" xlink:href="#S"/><use transform="matrix(0.07407407407407404,0,0,0.07407407407407404,44.370370370370345,0)" xlink:href="#ae"/></g><path fill="#333" d="M146-102V0H94v-102L6-248h54l60 105 60-105h54" id="al"/><path fill="#333" d="M24 0v-248h195v40H76v63h132v40H76v65h150V0H24" id="am"/><path fill="#333" d="M169-182c-1-43-94-46-97-3 18 66 151 10 154 114 3 95-165 93-204 36-6-8-10-19-12-30l50-8c3 46 112 56 116 5-17-69-150-10-154-114-4-87 153-88 188-35 5 8 8 18 10 28" id="an"/><g id="k"><use transform="matrix(0.061728395061728364,0,0,0.061728395061728364,0,0)" xlink:href="#al"/><use transform="matrix(0.061728395061728364,0,0,0.061728395061728364,14.814814814814808,0)" xlink:href="#am"/><use transform="matrix(0.061728395061728364,0,0,0.061728395061728364,29.629629629629616,0)" xlink:href="#an"/></g><path fill="#333" d="M175 0L67-191c6 58 2 128 3 191H24v-248h59L193-55c-6-58-2-129-3-193h46V0h-61" id="ao"/><path fill="#333" d="M140-251c80 0 125 45 125 126S219 4 139 4C58 4 15-44 15-125s44-126 125-126zm-1 214c52 0 73-35 73-88 0-50-21-86-72-86-52 0-73 35-73 86s22 88 72 88" id="ap"/><g id="l"><use transform="matrix(0.06172839506172837,0,0,0.06172839506172837,0,0)" xlink:href="#ao"/><use transform="matrix(0.06172839506172837,0,0,0.06172839506172837,15.987654320987648,0)" xlink:href="#ap"/></g><path fill="#3a414a" d="M127-220V0H93v-220H8v-28h204v28h-85" id="aq"/><g id="m"><use transform="matrix(0.07407407407407404,0,0,0.07407407407407404,0,0)" xlink:href="#aq"/><use transform="matrix(0.07407407407407404,0,0,0.07407407407407404,13.25925925925925,0)" xlink:href="#ag"/><use transform="matrix(0.07407407407407404,0,0,0.07407407407407404,28.074074074074062,0)" xlink:href="#ad"/><use transform="matrix(0.07407407407407404,0,0,0.07407407407407404,41.40740740740739,0)" xlink:href="#Q"/></g><path fill="#3a414a" d="M206 0h-36l-40-164L89 0H53L-1-190h32L70-26l43-164h34l41 164 42-164h31" id="ar"/><path fill="#3a414a" d="M106-169C34-169 62-67 57 0H25v-261h32l-1 103c12-21 28-36 61-36 89 0 53 116 60 194h-32v-121c2-32-8-49-39-48" id="as"/><g id="n"><use transform="matrix(0.07407407407407404,0,0,0.07407407407407404,0,0)" xlink:href="#ar"/><use transform="matrix(0.07407407407407404,0,0,0.07407407407407404,19.185185185185176,0)" xlink:href="#U"/><use transform="matrix(0.07407407407407404,0,0,0.07407407407407404,25.03703703703702,0)" xlink:href="#Q"/><use transform="matrix(0.07407407407407404,0,0,0.07407407407407404,32.44444444444443,0)" xlink:href="#as"/></g><path fill="#3a414a" d="M141 0L90-78 38 0H4l68-98-65-92h35l48 74 47-74h35l-64 92 68 98h-35" id="at"/><g id="o"><use transform="matrix(0.07407407407407404,0,0,0.07407407407407404,0,0)" xlink:href="#S"/><use transform="matrix(0.07407407407407404,0,0,0.07407407407407404,8.814814814814811,0)" xlink:href="#ag"/><use transform="matrix(0.07407407407407404,0,0,0.07407407407407404,23.62962962962962,0)" xlink:href="#aa"/><use transform="matrix(0.07407407407407404,0,0,0.07407407407407404,38.44444444444443,0)" xlink:href="#ag"/><use transform="matrix(0.07407407407407404,0,0,0.07407407407407404,53.25925925925924,0)" xlink:href="#at"/></g><g id="p"><use transform="matrix(0.07407407407407404,0,0,0.07407407407407404,0,0)" xlink:href="#aq"/><use transform="matrix(0.07407407407407404,0,0,0.07407407407407404,13.25925925925925,0)" xlink:href="#ag"/><use transform="matrix(0.07407407407407404,0,0,0.07407407407407404,28.074074074074062,0)" xlink:href="#ad"/><use transform="matrix(0.07407407407407404,0,0,0.07407407407407404,41.40740740740739,0)" xlink:href="#Q"/></g><g id="q"><use transform="matrix(0.07407407407407404,0,0,0.07407407407407404,0,0)" xlink:href="#ai"/><use transform="matrix(0.07407407407407404,0,0,0.07407407407407404,19.185185185185176,0)" xlink:href="#aj"/><use transform="matrix(0.07407407407407404,0,0,0.07407407407407404,38.37037037037035,0)" xlink:href="#ak"/></g><g id="r"><use transform="matrix(0.07407407407407404,0,0,0.07407407407407404,0,0)" xlink:href="#S"/><use transform="matrix(0.07407407407407404,0,0,0.07407407407407404,8.814814814814811,0)" xlink:href="#ag"/><use transform="matrix(0.07407407407407404,0,0,0.07407407407407404,23.62962962962962,0)" xlink:href="#ad"/><use transform="matrix(0.07407407407407404,0,0,0.07407407407407404,36.96296296296295,0)" xlink:href="#ah"/><use transform="matrix(0.07407407407407404,0,0,0.07407407407407404,51.77777777777776,0)" xlink:href="#W"/><use transform="matrix(0.07407407407407404,0,0,0.07407407407407404,66.59259259259257,0)" xlink:href="#V"/><use transform="matrix(0.07407407407407404,0,0,0.07407407407407404,81.40740740740738,0)" xlink:href="#ad"/><use transform="matrix(0.07407407407407404,0,0,0.07407407407407404,94.7407407407407,0)" xlink:href="#ag"/></g><path fill="#333" d="M76-208v77h127v40H76V0H24v-248h183v40H76" id="au"/><path fill="#333" d="M199 0l-22-63H83L61 0H9l90-248h61L250 0h-51zm-33-102l-36-108c-10 38-24 72-36 108h72" id="av"/><path fill="#333" d="M24 0v-248h52V0H24" id="aw"/><path fill="#333" d="M24 0v-248h52v208h133V0H24" id="ax"/><g id="s"><use transform="matrix(0.06172839506172839,0,0,0.06172839506172839,0,0)" xlink:href="#au"/><use transform="matrix(0.06172839506172839,0,0,0.06172839506172839,12.28395061728395,0)" xlink:href="#av"/><use transform="matrix(0.06172839506172839,0,0,0.06172839506172839,28.2716049382716,0)" xlink:href="#aw"/><use transform="matrix(0.06172839506172839,0,0,0.06172839506172839,34.44444444444444,0)" xlink:href="#ax"/></g><g id="t"><use transform="matrix(0.07407407407407404,0,0,0.07407407407407404,0,0)" xlink:href="#W"/><use transform="matrix(0.07407407407407404,0,0,0.07407407407407404,14.814814814814808,0)" xlink:href="#ah"/><use transform="matrix(0.07407407407407404,0,0,0.07407407407407404,29.629629629629616,0)" xlink:href="#Q"/><use transform="matrix(0.07407407407407404,0,0,0.07407407407407404,37.03703703703702,0)" xlink:href="#U"/><use transform="matrix(0.07407407407407404,0,0,0.07407407407407404,42.888888888888864,0)" xlink:href="#W"/><use transform="matrix(0.07407407407407404,0,0,0.07407407407407404,57.703703703703674,0)" xlink:href="#V"/><use transform="matrix(0.07407407407407404,0,0,0.07407407407407404,72.51851851851848,0)" xlink:href="#ad"/></g><path fill="#3a414a" d="M140-251c81 0 123 46 123 126C263-46 219 4 140 4 59 4 17-45 17-125s42-126 123-126zm0 227c63 0 89-41 89-101s-29-99-89-99c-61 0-89 39-89 99S79-25 140-24" id="ay"/><g id="u"><use transform="matrix(0.07407407407407404,0,0,0.07407407407407404,0,0)" xlink:href="#ay"/><use transform="matrix(0.07407407407407404,0,0,0.07407407407407404,20.740740740740733,0)" xlink:href="#ah"/><use transform="matrix(0.07407407407407404,0,0,0.07407407407407404,35.55555555555554,0)" xlink:href="#Q"/><use transform="matrix(0.07407407407407404,0,0,0.07407407407407404,42.96296296296295,0)" xlink:href="#U"/><use transform="matrix(0.07407407407407404,0,0,0.07407407407407404,48.814814814814795,0)" xlink:href="#W"/><use transform="matrix(0.07407407407407404,0,0,0.07407407407407404,63.629629629629605,0)" xlink:href="#V"/><use transform="matrix(0.07407407407407404,0,0,0.07407407407407404,78.44444444444441,0)" xlink:href="#ad"/></g><g id="v"><use transform="matrix(0.07407407407407404,0,0,0.07407407407407404,0,0)" xlink:href="#aq"/><use transform="matrix(0.07407407407407404,0,0,0.07407407407407404,13.25925925925925,0)" xlink:href="#ag"/><use transform="matrix(0.07407407407407404,0,0,0.07407407407407404,28.074074074074062,0)" xlink:href="#ad"/><use transform="matrix(0.07407407407407404,0,0,0.07407407407407404,41.40740740740739,0)" xlink:href="#Q"/></g><path fill="#3a414a" d="M108 0H70L1-190h34L89-25l56-165h34" id="az"/><path fill="#3a414a" d="M24 0v-261h32V0H24" id="aA"/><g id="w"><use transform="matrix(0.07407407407407404,0,0,0.07407407407407404,0,0)" xlink:href="#az"/><use transform="matrix(0.07407407407407404,0,0,0.07407407407407404,13.333333333333327,0)" xlink:href="#R"/><use transform="matrix(0.07407407407407404,0,0,0.07407407407407404,28.148148148148135,0)" xlink:href="#aA"/><use transform="matrix(0.07407407407407404,0,0,0.07407407407407404,33.999999999999986,0)" xlink:href="#U"/><use transform="matrix(0.07407407407407404,0,0,0.07407407407407404,39.85185185185183,0)" xlink:href="#ac"/><use transform="matrix(0.07407407407407404,0,0,0.07407407407407404,54.66666666666664,0)" xlink:href="#R"/><use transform="matrix(0.07407407407407404,0,0,0.07407407407407404,69.48148148148145,0)" xlink:href="#Q"/><use transform="matrix(0.07407407407407404,0,0,0.07407407407407404,76.88888888888886,0)" xlink:href="#W"/><use transform="matrix(0.07407407407407404,0,0,0.07407407407407404,91.70370370370367,0)" xlink:href="#S"/></g><path fill="#3a414a" d="M137 0h-34L2-248h35l83 218 83-218h36" id="aB"/><g id="x"><use transform="matrix(0.07407407407407404,0,0,0.07407407407407404,0,0)" xlink:href="#aB"/><use transform="matrix(0.07407407407407404,0,0,0.07407407407407404,15.777777777777771,0)" xlink:href="#R"/><use transform="matrix(0.07407407407407404,0,0,0.07407407407407404,30.59259259259258,0)" xlink:href="#aA"/><use transform="matrix(0.07407407407407404,0,0,0.07407407407407404,36.44444444444443,0)" xlink:href="#U"/><use transform="matrix(0.07407407407407404,0,0,0.07407407407407404,42.296296296296276,0)" xlink:href="#ac"/><use transform="matrix(0.07407407407407404,0,0,0.07407407407407404,57.111111111111086,0)" xlink:href="#R"/><use transform="matrix(0.07407407407407404,0,0,0.07407407407407404,71.9259259259259,0)" xlink:href="#Q"/><use transform="matrix(0.07407407407407404,0,0,0.07407407407407404,79.3333333333333,0)" xlink:href="#ag"/></g><g id="y"><use transform="matrix(0.04938271604938272,0,0,0.04938271604938272,0,0)" xlink:href="#au"/><use transform="matrix(0.04938271604938272,0,0,0.04938271604938272,9.82716049382716,0)" xlink:href="#av"/><use transform="matrix(0.04938271604938272,0,0,0.04938271604938272,22.617283950617285,0)" xlink:href="#aw"/><use transform="matrix(0.04938271604938272,0,0,0.04938271604938272,27.555555555555557,0)" xlink:href="#ax"/></g><path fill="#3a414a" d="M33 0v-248h34V0H33" id="aC"/><path fill="#3a414a" d="M101-234c-31-9-42 10-38 44h38v23H63V0H32v-167H5v-23h27c-7-52 17-82 69-68v24" id="aD"/><path fill="#3a414a" d="M210-169c-67 3-38 105-44 169h-31v-121c0-29-5-50-35-48C34-165 62-65 56 0H25l-1-190h30c1 10-1 24 2 32 10-44 99-50 107 0 11-21 27-35 58-36 85-2 47 119 55 194h-31v-121c0-29-5-49-35-48" id="aE"/><g id="z"><use transform="matrix(0.07407407407407404,0,0,0.07407407407407404,0,0)" xlink:href="#aC"/><use transform="matrix(0.07407407407407404,0,0,0.07407407407407404,7.407407407407404,0)" xlink:href="#V"/><use transform="matrix(0.07407407407407404,0,0,0.07407407407407404,22.222222222222214,0)" xlink:href="#aD"/><use transform="matrix(0.07407407407407404,0,0,0.07407407407407404,29.629629629629616,0)" xlink:href="#W"/><use transform="matrix(0.07407407407407404,0,0,0.07407407407407404,44.44444444444443,0)" xlink:href="#S"/><use transform="matrix(0.07407407407407404,0,0,0.07407407407407404,53.25925925925923,0)" xlink:href="#aE"/></g><g id="A"><use transform="matrix(0.07407407407407404,0,0,0.07407407407407404,0,0)" xlink:href="#ab"/><use transform="matrix(0.07407407407407404,0,0,0.07407407407407404,14.814814814814808,0)" xlink:href="#ad"/><use transform="matrix(0.07407407407407404,0,0,0.07407407407407404,28.148148148148135,0)" xlink:href="#ag"/><use transform="matrix(0.07407407407407404,0,0,0.07407407407407404,42.96296296296295,0)" xlink:href="#S"/></g><path fill="#3a414a" d="M30 0v-248h187v28H63v79h144v27H63v87h162V0H30" id="aF"/><g id="B"><use transform="matrix(0.07407407407407404,0,0,0.07407407407407404,0,0)" xlink:href="#aF"/><use transform="matrix(0.07407407407407404,0,0,0.07407407407407404,17.77777777777777,0)" xlink:href="#V"/><use transform="matrix(0.07407407407407404,0,0,0.07407407407407404,32.59259259259258,0)" xlink:href="#ac"/></g><g id="C"><use transform="matrix(0.07407407407407404,0,0,0.07407407407407404,0,0)" xlink:href="#ah"/><use transform="matrix(0.07407407407407404,0,0,0.07407407407407404,14.814814814814808,0)" xlink:href="#S"/><use transform="matrix(0.07407407407407404,0,0,0.07407407407407404,23.62962962962962,0)" xlink:href="#W"/><use transform="matrix(0.07407407407407404,0,0,0.07407407407407404,38.44444444444443,0)" xlink:href="#aa"/><use transform="matrix(0.07407407407407404,0,0,0.07407407407407404,53.25925925925924,0)" xlink:href="#S"/><use transform="matrix(0.07407407407407404,0,0,0.07407407407407404,62.07407407407405,0)" xlink:href="#R"/><use transform="matrix(0.07407407407407404,0,0,0.07407407407407404,76.88888888888886,0)" xlink:href="#aE"/></g><path fill="#333" d="M140-251c80 0 125 45 125 126 0 70-33 111-92 124 6 28 34 38 68 31l-1 36C177 83 129 55 120 2 51-6 15-50 15-125c0-81 44-126 125-126zm-1 214c52 0 73-35 73-88 0-50-21-86-72-86-52 0-73 35-73 86s22 88 72 88" id="aG"/><path fill="#333" d="M238-95c0 69-44 99-111 99C63 4 22-25 22-93v-155h51v151c-1 38 19 59 55 60 90 1 49-130 58-211h52v153" id="aH"/><path fill="#333" d="M136-208V0H84v-208H4v-40h212v40h-80" id="aI"/><g id="D"><use transform="matrix(0.04938271604938272,0,0,0.04938271604938272,0,0)" xlink:href="#aG"/><use transform="matrix(0.04938271604938272,0,0,0.04938271604938272,13.827160493827162,0)" xlink:href="#aH"/><use transform="matrix(0.04938271604938272,0,0,0.04938271604938272,26.617283950617285,0)" xlink:href="#aw"/><use transform="matrix(0.04938271604938272,0,0,0.04938271604938272,31.555555555555557,0)" xlink:href="#aI"/></g><g id="E"><use transform="matrix(0.07407407407407404,0,0,0.07407407407407404,0,0)" xlink:href="#aF"/><use transform="matrix(0.07407407407407404,0,0,0.07407407407407404,17.77777777777777,0)" xlink:href="#at"/><use transform="matrix(0.07407407407407404,0,0,0.07407407407407404,31.111111111111104,0)" xlink:href="#Q"/><use transform="matrix(0.07407407407407404,0,0,0.07407407407407404,38.518518518518505,0)" xlink:href="#S"/><use transform="matrix(0.07407407407407404,0,0,0.07407407407407404,47.333333333333314,0)" xlink:href="#R"/><use transform="matrix(0.07407407407407404,0,0,0.07407407407407404,62.148148148148124,0)" xlink:href="#Y"/><use transform="matrix(0.07407407407407404,0,0,0.07407407407407404,75.48148148148145,0)" xlink:href="#Q"/></g><path fill="#3a414a" d="M197 0v-115H63V0H30v-248h33v105h134v-105h34V0h-34" id="aJ"/><path fill="#3a414a" d="M240 0l2-218c-23 76-54 145-80 218h-23L58-218 59 0H30v-248h44l77 211c21-75 51-140 76-211h43V0h-30" id="aK"/><g id="F"><use transform="matrix(0.07407407407407404,0,0,0.07407407407407404,0,0)" xlink:href="#aJ"/><use transform="matrix(0.07407407407407404,0,0,0.07407407407407404,19.185185185185176,0)" xlink:href="#aq"/><use transform="matrix(0.07407407407407404,0,0,0.07407407407407404,35.40740740740739,0)" xlink:href="#aK"/><use transform="matrix(0.07407407407407404,0,0,0.07407407407407404,57.55555555555553,0)" xlink:href="#ak"/></g><g id="G"><use transform="matrix(0.07407407407407404,0,0,0.07407407407407404,0,0)" xlink:href="#aC"/><use transform="matrix(0.07407407407407404,0,0,0.07407407407407404,7.407407407407404,0)" xlink:href="#Q"/><use transform="matrix(0.07407407407407404,0,0,0.07407407407407404,14.814814814814808,0)" xlink:href="#ag"/><use transform="matrix(0.07407407407407404,0,0,0.07407407407407404,29.629629629629616,0)" xlink:href="#S"/><use transform="matrix(0.07407407407407404,0,0,0.07407407407407404,38.44444444444443,0)" xlink:href="#R"/><use transform="matrix(0.07407407407407404,0,0,0.07407407407407404,53.25925925925924,0)" xlink:href="#Q"/><use transform="matrix(0.07407407407407404,0,0,0.07407407407407404,60.66666666666664,0)" xlink:href="#ag"/></g><g id="H"><use transform="matrix(0.07407407407407404,0,0,0.07407407407407404,0,0)" xlink:href="#W"/><use transform="matrix(0.07407407407407404,0,0,0.07407407407407404,14.814814814814808,0)" xlink:href="#az"/><use transform="matrix(0.07407407407407404,0,0,0.07407407407407404,28.148148148148135,0)" xlink:href="#ag"/><use transform="matrix(0.07407407407407404,0,0,0.07407407407407404,42.96296296296295,0)" xlink:href="#S"/></g><g id="I"><use transform="matrix(0.07407407407407404,0,0,0.07407407407407404,0,0)" xlink:href="#ag"/><use transform="matrix(0.07407407407407404,0,0,0.07407407407407404,14.814814814814808,0)" xlink:href="#S"/><use transform="matrix(0.07407407407407404,0,0,0.07407407407407404,23.62962962962962,0)" xlink:href="#S"/><use transform="matrix(0.07407407407407404,0,0,0.07407407407407404,32.44444444444443,0)" xlink:href="#W"/><use transform="matrix(0.07407407407407404,0,0,0.07407407407407404,47.25925925925924,0)" xlink:href="#S"/><use transform="matrix(0.07407407407407404,0,0,0.07407407407407404,56.07407407407405,0)" xlink:href="#ad"/></g><g id="J"><use transform="matrix(0.04938271604938272,0,0,0.04938271604938272,0,0)" xlink:href="#ao"/><use transform="matrix(0.04938271604938272,0,0,0.04938271604938272,12.790123456790125,0)" xlink:href="#ap"/></g><path fill="#333" d="M240-174c0 40-23 61-54 70L253 0h-59l-57-94H76V0H24v-248c93 4 217-23 216 74zM76-134c48-2 112 12 112-38 0-48-66-32-112-35v73" id="aL"/><g id="K"><use transform="matrix(0.04938271604938272,0,0,0.04938271604938272,0,0)" xlink:href="#am"/><use transform="matrix(0.04938271604938272,0,0,0.04938271604938272,11.851851851851853,0)" xlink:href="#aL"/><use transform="matrix(0.04938271604938272,0,0,0.04938271604938272,24.641975308641978,0)" xlink:href="#aL"/><use transform="matrix(0.04938271604938272,0,0,0.04938271604938272,37.4320987654321,0)" xlink:href="#ap"/><use transform="matrix(0.04938271604938272,0,0,0.04938271604938272,51.25925925925927,0)" xlink:href="#aL"/><use transform="matrix(0.04938271604938272,0,0,0.04938271604938272,64.0493827160494,0)" xlink:href="#an"/></g><path fill="#3a414a" d="M212-179c-10-28-35-45-73-45-59 0-87 40-87 99 0 60 29 101 89 101 43 0 62-24 78-52l27 14C228-24 195 4 139 4 59 4 22-46 18-125c-6-104 99-153 187-111 19 9 31 26 39 46" id="aM"/><g id="L"><use transform="matrix(0.07407407407407404,0,0,0.07407407407407404,0,0)" xlink:href="#aM"/><use transform="matrix(0.07407407407407404,0,0,0.07407407407407404,19.185185185185176,0)" xlink:href="#aA"/><use transform="matrix(0.07407407407407404,0,0,0.07407407407407404,25.03703703703702,0)" xlink:href="#ag"/><use transform="matrix(0.07407407407407404,0,0,0.07407407407407404,39.85185185185183,0)" xlink:href="#R"/><use transform="matrix(0.07407407407407404,0,0,0.07407407407407404,54.66666666666664,0)" xlink:href="#V"/></g><g id="M"><use transform="matrix(0.07407407407407404,0,0,0.07407407407407404,0,0)" xlink:href="#ab"/><use transform="matrix(0.07407407407407404,0,0,0.07407407407407404,14.814814814814808,0)" xlink:href="#ah"/></g><path fill="#333" d="M275 0h-61l-44-196L126 0H64L0-248h53L97-49l45-199h58l43 199 44-199h52" id="aN"/><g id="N"><use transform="matrix(0.04938271604938272,0,0,0.04938271604938272,0,0)" xlink:href="#ao"/><use transform="matrix(0.04938271604938272,0,0,0.04938271604938272,12.790123456790125,0)" xlink:href="#am"/><use transform="matrix(0.04938271604938272,0,0,0.04938271604938272,24.641975308641978,0)" xlink:href="#aN"/></g><g id="O"><use transform="matrix(0.04938271604938272,0,0,0.04938271604938272,0,0)" xlink:href="#aH"/><use transform="matrix(0.04938271604938272,0,0,0.04938271604938272,12.790123456790125,0)" xlink:href="#aL"/><use transform="matrix(0.04938271604938272,0,0,0.04938271604938272,25.58024691358025,0)" xlink:href="#ax"/></g></defs></g></svg>