<svg xmlns="http://www.w3.org/2000/svg" xmlns:xlink="http://www.w3.org/1999/xlink" xmlns:lucid="lucid" width="1725.55" height="1043.33"><g transform="translate(-78.16478698926244 -143.64326221354543)" lucid:page-tab-id="0_0"><path d="M0 0h1881.88v1330.62H0z" fill="#0d1117"/><path d="M302.07 273.64c0 55.23-45.65 100-101.95 100-56.3 0-101.96-44.77-101.96-100s45.65-100 101.96-100c56.3 0 101.95 44.77 101.95 100z" stroke="#369e3f" stroke-width="2" fill="url(#a)"/><use xlink:href="#b" transform="matrix(1,0,0,1,103.16478698926244,178.64326221354543) translate(56.99348958333334 104.453125)"/><path d="M1601.57 348.78c2.56-2.1 6.72-2.1 9.28 0l90.72 74.4c2.56 2.1 2.56 5.5 0 7.6l-90.72 74.4c-2.56 2.1-6.72 2.1-9.28 0l-90.72-74.4c-2.56-2.1-2.56-5.5 0-7.6z" stroke="#3a414a" stroke-width="2" fill="#edf5ff"/><use xlink:href="#c" transform="matrix(1,0,0,1,1511.2118689861945,349.97785378523974) translate(46.9971875 59.828125)"/><use xlink:href="#d" transform="matrix(1,0,0,1,1511.2118689861945,349.97785378523974) translate(95.005 59.828125)"/><use xlink:href="#e" transform="matrix(1,0,0,1,1511.2118689861945,349.97785378523974) translate(62.99979166666667 86.49479166666666)"/><use xlink:href="#f" transform="matrix(1,0,0,1,1511.2118689861945,349.97785378523974) translate(46.99718750000002 113.16145833333331)"/><path d="M1186.2 179.64c0-3.3 2.7-6 6-6h208c3.33 0 6 2.7 6 6v145.34c0 3.3-2.67 6-6 6h-208c-3.3 0-6-2.7-6-6z" stroke="#3a414a" stroke-width="2" fill="#e81313"/><use xlink:href="#g" transform="matrix(1,0,0,1,1198.2118689861945,185.64326221354543) translate(25.988281250000014 46.453125)"/><use xlink:href="#h" transform="matrix(1,0,0,1,1198.2118689861945,185.64326221354543) translate(122.00390624999999 46.453125)"/><use xlink:href="#i" transform="matrix(1,0,0,1,1198.2118689861945,185.64326221354543) translate(1.9843750000000284 73.11979166666666)"/><use xlink:href="#j" transform="matrix(1,0,0,1,1198.2118689861945,185.64326221354543) translate(81.99739583333334 73.11979166666666)"/><use xlink:href="#k" transform="matrix(1,0,0,1,1198.2118689861945,185.64326221354543) translate(25.988281250000014 99.78645833333333)"/><use xlink:href="#l" transform="matrix(1,0,0,1,1198.2118689861945,185.64326221354543) translate(89.99869791666667 99.78645833333333)"/><path d="M1607.2 345.27h-2v-26.12h2zm-3.44-93.04l2.53 2.53.9 3.42v38.72h-2v-38.46l-.7-2.64-1.78-1.78-2.64-.7H1425.7v-2h174.64z" stroke="#e81313" stroke-width=".05" fill="#e81313"/><path d="M1607.2 346.32l-1.77-.1-.22.06v-1.04h2z" fill="#e81313"/><path d="M1607.24 346.34l-1.8-.08-.25.05v-1.08h2.04zm-2-1.07v.98l.2-.04 1.75.1v-1.03z" stroke="#e81313" stroke-width=".05" fill="#e81313"/><path d="M1424.7 256.95l-14.25-4.64 14.26-4.63z" fill="#e81313"/><path d="M1425.7 258.32l-18.5-6 18.5-6.02zm-12.02-6l10.03 3.25v-6.52z" stroke="#e81313" stroke-width=".05" fill="#e81313"/><use xlink:href="#m" transform="matrix(1,0,0,1,1592.8606689606331,296.90497552526176) translate(0 17.794357723246193)"/><path d="M1184.2 252.3H1037c-3.32 0-6 2.7-6 6v94.17" stroke="#f2f3f5" stroke-width="2" fill="none"/><path d="M1185.2 253.3h-1v-2h1z" stroke="#f2f3f5" stroke-width=".05" fill="#f2f3f5"/><path d="M1031 367.74l-4.64-14.27h9.27z" stroke="#f2f3f5" stroke-width="2" fill="#f2f3f5"/><path d="M866.2 392.9c0-3.32 2.7-6.25 6-6.54l208.04-18.84c3.3-.3 5.97 2.14 5.97 5.46v108c0 3.3-2.67 6-6 6h-208c-3.3 0-6-2.7-6-6z" stroke="#3a414a" stroke-width="2" fill="#f2f3f5"/><use xlink:href="#n" transform="matrix(1,0,0,1,871.2118689861946,391.97659554687874) translate(48.990885416666686 26.953124999999996)"/><use xlink:href="#o" transform="matrix(1,0,0,1,871.2118689861946,391.97659554687874) translate(8.984375000000028 53.61979166666666)"/><use xlink:href="#e" transform="matrix(1,0,0,1,871.2118689861946,391.97659554687874) translate(137.00520833333331 53.61979166666666)"/><use xlink:href="#p" transform="matrix(1,0,0,1,871.2118689861946,391.97659554687874) translate(32.988281250000014 80.28645833333333)"/><use xlink:href="#q" transform="matrix(1,0,0,1,871.2118689861946,391.97659554687874) translate(113.00130208333333 80.28645833333333)"/><path d="M304.07 273.64h145.16" stroke="#f2f3f5" stroke-width="2" fill="none"/><path d="M304.1 274.64h-1.05l.02-.98v-.17l-.02-.86h1.05z" stroke="#f2f3f5" stroke-width=".05" fill="#f2f3f5"/><path d="M464.5 273.64l-14.27 4.64V269z" stroke="#f2f3f5" stroke-width="2" fill="#f2f3f5"/><path d="M1029.47 603.87l.72 2.64 1.76 1.8 2.64.7h144.7v2h-144.96l-3.42-.92-2.53-2.53-.93-3.42V488.98h2z" stroke="#f2f3f5" stroke-width=".05" fill="#f2f3f5"/><path d="M1029.47 489h-2v-1.02h2z" fill="#f2f3f5"/><path d="M1029.5 489.03h-2.05v-1.08h2.05zm-2-1.03v.98h1.95V488z" stroke="#f2f3f5" stroke-width=".05" fill="#f2f3f5"/><path d="M1194.57 610l-14.27 4.64v-9.28z" fill="#f2f3f5"/><path d="M1197.8 610l-18.5 6v-12zm-16.5 3.26l10.03-3.26-10.03-3.26z" stroke="#f2f3f5" stroke-width=".05" fill="#f2f3f5"/><path d="M1737.2 702.47l-.9 3.42-2.54 2.52-3.42.92h-30.5l-2.64.72-1.77 1.77-.72 2.64v93h-2V714.2l.94-3.4 2.53-2.54 3.4-.92h30.5l2.65-.7 1.78-1.8.7-2.63V501.78h2zm-3.44-275.57l2.53 2.53.9 3.4v46.7h-2V433.1l-.7-2.63-1.78-1.78-2.64-.72h-24.6v-2h24.86z" stroke="#008a0e" stroke-width=".05" fill="#008a0e"/><path d="M1705.5 427.98h-1.2l.22-.74-.25-1.26h1.22z" fill="#008a0e"/><path d="M1705.52 428h-1.26l.23-.76-.26-1.3h1.28zm-1.22-2l.24 1.24-.2.7h1.13V426z" stroke="#008a0e" stroke-width=".05" fill="#008a0e"/><path d="M1693.7 822.74l-4.62-14.27h9.27z" fill="#008a0e"/><path d="M1693.7 825.98l-6-18.5h12.02zm-3.25-16.5l3.26 10.02 3.27-10.03z" stroke="#008a0e" stroke-width=".05" fill="#008a0e"/><use xlink:href="#r" transform="matrix(1,0,0,1,1716.1850689478524,479.51897981613985) translate(0 17.794357723246193)"/><path d="M1297.2 520.4h-2v-28.27h2zm0-50.52h-2v-119.4h2z" stroke="#e81313" stroke-width=".05" fill="#e81313"/><path d="M1297.2 521.5l-1.56-.14-.43.1v-1.08h2z" fill="#e81313"/><path d="M1297.24 521.52l-1.6-.14-.45.1v-1.12h2.04zm-2-1.1v1l.4-.1 1.55.14v-1.05z" stroke="#e81313" stroke-width=".05" fill="#e81313"/><path d="M1300.85 349.48h-9.27l4.63-14.27z" fill="#e81313"/><path d="M1302.22 350.48h-12.02l6-18.5zm-9.27-2h6.52l-3.26-10.03z" stroke="#e81313" stroke-width=".05" fill="#e81313"/><use xlink:href="#s" transform="matrix(1,0,0,1,1176.0510687561418,469.8771870182106) translate(0 17.794357723246193)"/><use xlink:href="#t" transform="matrix(1,0,0,1,1176.0510687561418,469.8771870182106) translate(53.4048001022456 17.794357723246193)"/><use xlink:href="#u" transform="matrix(1,0,0,1,1176.0510687561418,469.8771870182106) translate(160.2144003067368 17.794357723246193)"/><path d="M1458.1 611h-62.48v-2h62.5zm149.1-12.12h-2v-72.7h2z" stroke="#008a0e" stroke-width=".05" fill="#008a0e"/><path d="M1395.64 611h-1.23l.22-1.02-.2-.98h1.22z" fill="#008a0e"/><path d="M1395.67 611.02h-1.3l.23-1.04-.22-1h1.3zm-1.23-2l.2.96-.2 1h1.18V609z" stroke="#008a0e" stroke-width=".05" fill="#008a0e"/><path d="M1610.85 525.2h-9.27l4.63-14.28z" fill="#008a0e"/><path d="M1612.22 526.2h-12.02l6-18.52zm-9.27-2h6.52l-3.26-10.04z" stroke="#008a0e" stroke-width=".05" fill="#008a0e"/><use xlink:href="#v" transform="matrix(1,0,0,1,1458.1147260574007,598.8758105564077) translate(0 17.794357723246193)"/><use xlink:href="#w" transform="matrix(1,0,0,1,1458.1147260574007,598.8758105564077) translate(106.80960020449119 17.794357723246193)"/><path d="M746.2 1052.98c0-3.32 2.7-6 6-6h213c3.33 0 6 2.68 6 6v108c0 3.3-2.67 6-6 6h-213c-3.3 0-6-2.7-6-6z" stroke="#3a414a" stroke-width="2" fill="#e3fae3"/><use xlink:href="#x" transform="matrix(1,0,0,1,758.2118689861945,1058.9765955468788) translate(44.490885416666686 30.328124999999996)"/><use xlink:href="#y" transform="matrix(1,0,0,1,758.2118689861945,1058.9765955468788) translate(28.48828125000003 56.99479166666666)"/><use xlink:href="#z" transform="matrix(1,0,0,1,758.2118689861945,1058.9765955468788) translate(140.50651041666666 56.99479166666666)"/><use xlink:href="#A" transform="matrix(1,0,0,1,758.2118689861945,1058.9765955468788) translate(68.49479166666667 83.66145833333333)"/><path d="M971.2 1052.98c0-3.32 2.7-6 6-6h243c3.33 0 6 2.68 6 6v108c0 3.3-2.67 6-6 6h-243c-3.3 0-6-2.7-6-6z" fill="none"/><path d="M971.2 1166.98c5.53 0 10-4.48 10-10v-40c0-5.53 4.5-10 10-10-5.5 0-10-4.48-10-10v-40c0-5.53-4.47-10-10-10" stroke="#f2f3f5" stroke-width="2" fill="none"/><use xlink:href="#B" transform="matrix(1,0,0,1,1006.2118689861945,1051.9765955468788) translate(0 36.328125)"/><use xlink:href="#C" transform="matrix(1,0,0,1,1006.2118689861945,1051.9765955468788) translate(0 62.99479166666666)"/><use xlink:href="#D" transform="matrix(1,0,0,1,1006.2118689861945,1051.9765955468788) translate(128.0208333333333 62.99479166666666)"/><use xlink:href="#E" transform="matrix(1,0,0,1,1006.2118689861945,1051.9765955468788) translate(0 89.66145833333333)"/><path d="M326.2 1052.98c0-3.32 2.7-6 6-6h228c3.33 0 6 2.68 6 6v108c0 3.3-2.67 6-6 6h-228c-3.3 0-6-2.7-6-6z" stroke="#3a414a" stroke-width="2" fill="#e3fae3"/><use xlink:href="#F" transform="matrix(1,0,0,1,338.21186898619453,1058.9765955468788) translate(11.984375000000028 30.328124999999996)"/><use xlink:href="#d" transform="matrix(1,0,0,1,338.21186898619453,1058.9765955468788) translate(156.00781249999997 30.328124999999996)"/><use xlink:href="#G" transform="matrix(1,0,0,1,338.21186898619453,1058.9765955468788) translate(35.98828125000003 56.99479166666666)"/><use xlink:href="#H" transform="matrix(1,0,0,1,338.21186898619453,1058.9765955468788) translate(75.99479166666667 83.66145833333333)"/><path d="M613.65 1107.98H585.7v-2h27.95zm130.56 0h-23.87v-2h23.88z" stroke="#f2f3f5" stroke-width=".05" fill="#f2f3f5"/><path d="M745.2 1107.98h-1v-2h1z" fill="#f2f3f5"/><path d="M745.24 1108h-1.08v-2.05h1.08zm-1.03-2v1.95h1V1106z" stroke="#f2f3f5" stroke-width=".05" fill="#f2f3f5"/><path d="M584.7 1111.6l-14.25-4.62 14.26-4.64z" fill="#f2f3f5"/><path d="M585.7 1113l-18.5-6.02 18.5-6.02zm-12.02-6.02l10.03 3.26v-6.52z" stroke="#f2f3f5" stroke-width=".05" fill="#f2f3f5"/><use xlink:href="#I" transform="matrix(1,0,0,1,613.6507745726495,1098.0877067268248) translate(0 14.21875)"/><use xlink:href="#J" transform="matrix(1,0,0,1,613.6507745726495,1098.0877067268248) translate(42.673611111111114 14.21875)"/><path d="M725.06 956.1l-.93 3.42-2.53 2.53-3.4.93H452.33l-2.64.7-1.77 1.8-.72 2.63V1045h-2v-77.14l.94-3.4 2.53-2.54 3.4-.92h265.85l2.65-.72 1.77-1.77.72-2.66v-59.36h2z" stroke="#f2f3f5" stroke-width=".05" fill="#f2f3f5"/><path d="M447.2 1045.98h-2v-1.03h2z" fill="#f2f3f5"/><path d="M447.24 1046h-2.05v-1.07h2.04zm-2-1.02v.97h1.95v-.97z" stroke="#f2f3f5" stroke-width=".05" fill="#f2f3f5"/><path d="M728.7 895.48h-9.28l4.64-14.27z" fill="#f2f3f5"/><path d="M730.07 896.48h-12.02l6-18.5zm-9.27-2h6.52l-3.26-10.03z" stroke="#f2f3f5" stroke-width=".05" fill="#f2f3f5"/><path d="M1291.75 524c2.47-2.2 6.46-2.2 8.92 0l91.08 82c2.47 2.2 2.47 5.8 0 8l-91.08 82c-2.46 2.2-6.45 2.2-8.92 0l-91.08-82c-2.46-2.2-2.46-5.8 0-8z" stroke="#3a414a" stroke-width="2" fill="#edf5ff"/><use xlink:href="#K" transform="matrix(1,0,0,1,1201.2118689861945,525) translate(54.998489583333345 63.828125)"/><use xlink:href="#G" transform="matrix(1,0,0,1,1201.2118689861945,525) translate(22.99328125000003 90.49479166666666)"/><use xlink:href="#L" transform="matrix(1,0,0,1,1201.2118689861945,525) translate(62.999791666666674 117.16145833333331)"/><path d="M481.4 760.58c2.66-2 6.96-2 9.6 0l70.4 52.8c2.66 1.98 2.66 5.2 0 7.2l-70.4 52.8c-2.64 1.98-6.94 1.98-9.6 0l-70.4-52.8c-2.64-2-2.64-5.22 0-7.2z" stroke="#3a414a" stroke-width="2" fill="#edf5ff"/><use xlink:href="#M" transform="matrix(1,0,0,1,411.21186898619453,761.9765955468787) translate(34.998489583333345 48.828125)"/><use xlink:href="#N" transform="matrix(1,0,0,1,411.21186898619453,761.9765955468787) translate(34.99848958333334 75.49479166666666)"/><path d="M620.06 816.98h-37.24" stroke="#f2f3f5" stroke-width="2" fill="none"/><path d="M621.05 817.98h-1v-2h1.02z" stroke="#f2f3f5" stroke-width=".05" fill="#f2f3f5"/><path d="M567.55 816.98l14.27-4.64v9.27z" stroke="#f2f3f5" stroke-width="2" fill="#f2f3f5"/><path d="M130 848.3c0-3.3 2.7-6 6-6h128c3.3 0 6 2.7 6 6v88c0 3.32-2.7 6-6 6H136c-3.3 0-6-2.68-6-6z" stroke="#b10f0f" stroke-width="2" fill="url(#O)"/><use xlink:href="#P" transform="matrix(1,0,0,1,142,854.3099288802122) translate(33.99609375 33.203125)"/><use xlink:href="#Q" transform="matrix(1,0,0,1,142,854.3099288802122) translate(1.9908854166666856 59.86979166666666)"/><path d="M1642.26 729.92l2.53 2.53.9 3.42v71.6h-2v-71.34l-.7-2.64-1.78-1.8-2.64-.7H618.66v-2h1020.2zM578.6 731h-86.26l-2.64.7-1.77 1.8-.72 2.63v21.02h-2v-21.28l.94-3.42 2.53-2.53 3.4-.92h86.54z" stroke="#008a0e" stroke-width=".05" fill="#008a0e"/><path d="M487.2 758.17l-1.95-.05-.04-1h2z" fill="#008a0e"/><path d="M487.24 758.2l-2.02-.05-.03-1.05h2.04zm-2-1.05l.03.95 1.92.05v-1z" stroke="#008a0e" stroke-width=".05" fill="#008a0e"/><path d="M1644.7 822.74l-4.62-14.27h9.27z" fill="#008a0e"/><path d="M1644.7 825.98l-6-18.5h12.02zm-3.25-16.5l3.26 10.02 3.27-10.03z" stroke="#008a0e" stroke-width=".05" fill="#008a0e"/><use xlink:href="#r" transform="matrix(1,0,0,1,578.6083329467642,718.8758105564077) translate(0 17.794357723246193)"/><path d="M1603.7 832.98c0-3.32 2.7-6 6-6h168c3.33 0 6 2.68 6 6v118.66c0 3.32-2.67 6-6 6h-168c-3.3 0-6-2.68-6-6z" stroke="#3a414a" stroke-width="2" fill="#f2f3f5"/><use xlink:href="#R" transform="matrix(1,0,0,1,1615.7118689861945,838.9765955468788) translate(21.990885416666686 21.49479166666666)"/><use xlink:href="#S" transform="matrix(1,0,0,1,1615.7118689861945,838.9765955468788) translate(-2.0130208333333 48.16145833333333)"/><use xlink:href="#T" transform="matrix(1,0,0,1,1615.7118689861945,838.9765955468788) translate(13.989583333333343 74.82812499999999)"/><use xlink:href="#U" transform="matrix(1,0,0,1,1615.7118689861945,838.9765955468788) translate(94.00260416666666 74.82812499999999)"/><use xlink:href="#V" transform="matrix(1,0,0,1,1615.7118689861945,838.9765955468788) translate(5.988281250000028 101.49479166666666)"/><path d="M1326.2 832.98c0-3.32 2.7-6 6-6h196.13c3.3 0 6 2.68 6 6v118.66c0 3.32-2.7 6-6 6H1332.2c-3.3 0-6-2.68-6-6z" stroke="#3a414a" stroke-width="2" fill="#f2f3f5"/><use xlink:href="#W" transform="matrix(1,0,0,1,1338.2118689861945,838.9765955468788) translate(4.485677083333357 34.703125)"/><use xlink:href="#d" transform="matrix(1,0,0,1,1338.2118689861945,838.9765955468788) translate(132.50651041666663 34.703125)"/><use xlink:href="#X" transform="matrix(1,0,0,1,1338.2118689861945,838.9765955468788) translate(12.4869791666667 61.36979166666666)"/><use xlink:href="#H" transform="matrix(1,0,0,1,1338.2118689861945,838.9765955468788) translate(60.49479166666667 88.03645833333333)"/><path d="M1302.77 1042.3c0-3.3 2.7-6 6-6h243c3.3 0 6 2.7 6 6V1161c0 3.3-2.7 6-6 6h-243c-3.3 0-6-2.7-6-6z" stroke="#3a414a" stroke-width="2" fill="#f2f3f5"/><use xlink:href="#Y" transform="matrix(1,0,0,1,1314.7688865300543,1048.309928880212) translate(11.483072916666686 34.703125)"/><use xlink:href="#Z" transform="matrix(1,0,0,1,1314.7688865300543,1048.309928880212) translate(91.49609375 34.703125)"/><use xlink:href="#q" transform="matrix(1,0,0,1,1314.7688865300543,1048.309928880212) translate(155.50651041666666 34.703125)"/><use xlink:href="#Z" transform="matrix(1,0,0,1,1314.7688865300543,1048.309928880212) translate(3.4817708333333712 61.36979166666666)"/><use xlink:href="#X" transform="matrix(1,0,0,1,1314.7688865300543,1048.309928880212) translate(67.49218750000003 61.36979166666666)"/><use xlink:href="#aa" transform="matrix(1,0,0,1,1314.7688865300543,1048.309928880212) translate(51.48958333333336 88.03645833333333)"/><path d="M571.97 167.9c2.34-2.36 6.14-2.36 8.48 0l101.52 101.5c2.34 2.34 2.34 6.14 0 8.5L580.45 379.4c-2.34 2.34-6.14 2.34-8.48 0L470.45 277.9c-2.34-2.36-2.34-6.16 0-8.5z" stroke="#3a414a" stroke-width="2" fill="#f2f3f5"/><use xlink:href="#ab" transform="matrix(1,0,0,1,471.21186898619453,168.64326221354543) translate(24.99197916666669 100.453125)"/><use xlink:href="#ac" transform="matrix(1,0,0,1,471.21186898619453,168.64326221354543) translate(105.00500000000001 100.453125)"/><use xlink:href="#ad" transform="matrix(1,0,0,1,471.21186898619453,168.64326221354543) translate(24.991979166666706 127.11979166666666)"/><path d="M889.7 273.57l2.54 2.53.93 3.4v85.54h-2v-85.26l-.72-2.65-1.77-1.77-2.65-.72h-141.8v-2H886.3zm-204 1.07v-2h31.84v2z" stroke="#e81313" stroke-width=".05" fill="#e81313"/><path d="M685.72 274.64h-1.16l.18-1.3-.16-.7h1.14z" fill="#e81313"/><path d="M685.74 274.67h-1.2l.17-1.33-.15-.72h1.2zm-1.13-2l.16.66-.18 1.3h1.1v-1.96z" stroke="#e81313" stroke-width=".05" fill="#e81313"/><path d="M892.17 380.3l-4.64-14.26h9.27z" fill="#e81313"/><path d="M892.17 383.54l-6.02-18.5h12.03zm-3.26-16.5l3.27 10.03 3.26-10.03z" stroke="#e81313" stroke-width=".05" fill="#e81313"/><use xlink:href="#ae" transform="matrix(1,0,0,1,717.5353484478126,262.5190727699532) translate(0 17.794357723246193)"/><path d="M1300.77 1101.64h-33c-3.3 0-6-2.68-6-6v-83.66c0-3.32-2.7-6-6-6H864.7c-3.3 0-6 2.68-6 6v15.5" stroke="#f2f3f5" stroke-width="2" fill="none"/><path d="M1301.77 1102.64h-1.03v-2h1.03z" stroke="#f2f3f5" stroke-width=".05" fill="#f2f3f5"/><path d="M858.7 1042.74l-4.62-14.27h9.27z" stroke="#f2f3f5" stroke-width="2" fill="#f2f3f5"/><path d="M481.05 472.98c0-3.32 2.68-6 6-6h168c3.3 0 6 2.68 6 6v88c0 3.3-2.7 6-6 6h-168c-3.32 0-6-2.7-6-6z" stroke="#3a414a" stroke-width="2" fill="#f2f3f5"/><use xlink:href="#af" transform="matrix(1,0,0,1,493.047957966396,478.9765955468788) translate(-2.0130208333333 32.661458333333336)"/><use xlink:href="#ag" transform="matrix(1,0,0,1,493.047957966396,478.9765955468788) translate(37.99348958333334 59.328125)"/><path d="M577.2 447.47h-2V420.7h2zm0-49.02h-2v-15.32h2z" stroke="#369e3f" stroke-width=".05" fill="#369e3f"/><path d="M576.52 382.17l.7-.16v1.15h-2V382z" fill="#369e3f"/><path d="M576.52 382.14l.72-.16v1.2h-2.05v-1.22zm-1.28 1h1.95v-1.1l-.68.15-1.28-.18z" stroke="#369e3f" stroke-width=".05" fill="#369e3f"/><path d="M576.2 462.74l-4.62-14.27h9.27z" fill="#369e3f"/><path d="M576.2 465.98l-6-18.5h12.02zm-3.25-16.5l3.26 10.02 3.27-10.03z" stroke="#369e3f" stroke-width=".05" fill="#369e3f"/><g><use xlink:href="#ah" transform="matrix(1,0,0,1,556.1850689478524,398.4537682827737) translate(0 17.794357723246193)"/></g><path d="M663.05 516.98h94.58c3.3 0 6-2.7 6-6v-78c0-3.32 2.7-6 6-6h77.08" stroke="#f2f3f5" stroke-width="2" fill="none"/><path d="M663.07 517.98h-1.02v-2h1.02z" stroke="#f2f3f5" stroke-width=".05" fill="#f2f3f5"/><path d="M861.98 426.98l-14.27 4.63v-9.26z" stroke="#f2f3f5" stroke-width="2" fill="#f2f3f5"/><path d="M1601.7 892.3h-47.87" stroke="#f2f3f5" stroke-width="2" fill="none"/><path d="M1602.7 893.3h-1v-2h1z" stroke="#f2f3f5" stroke-width=".05" fill="#f2f3f5"/><path d="M1538.56 892.3l14.27-4.63v9.28z" stroke="#f2f3f5" stroke-width="2" fill="#f2f3f5"/><path d="M1430.27 959.64v57.17" stroke="#f2f3f5" stroke-width="2" fill="none"/><path d="M1431.27 959.67h-2v-1.03h2z" stroke="#f2f3f5" stroke-width=".05" fill="#f2f3f5"/><path d="M1430.27 1032.07l-4.64-14.26h9.27z" stroke="#f2f3f5" stroke-width="2" fill="#f2f3f5"/><path d="M658.2 761.9c1.9-2.72 6.1-4.92 9.42-4.92H807.3c11.5 0 20.8 26.86 20.8 60 0 33.13-9.3 60-20.8 60H667.62c-3.3 0-7.53-2.2-9.42-4.93l-34.78-50.14c-1.9-2.72-1.9-7.13 0-9.85z" stroke="#333" stroke-width="2" fill="#54c45e"/><g><use xlink:href="#ai" transform="matrix(1,0,0,1,625,761.9765955468787) translate(70.49848958333334 35.078125)"/><use xlink:href="#aj" transform="matrix(1,0,0,1,625,761.9765955468787) translate(21.991979166666702 61.74479166666666)"/><use xlink:href="#ak" transform="matrix(1,0,0,1,625,761.9765955468787) translate(61.49718750000001 88.41145833333333)"/></g><path d="M120 647.9c0-3.3 2.67-6.27 5.97-6.6l148.06-15.37c3.3-.34 5.97 2.07 5.97 5.38v88c0 3.32-2.7 6-6 6H126c-3.3 0-6-2.68-6-6z" stroke="#3a414a" stroke-width="2" fill="url(#al)"/><g><use xlink:href="#am" transform="matrix(1,0,0,1,125,646.9765955468787) translate(18.99088541666667 30.578124999999996)"/><use xlink:href="#an" transform="matrix(1,0,0,1,125,646.9765955468787) translate(83.00130208333333 30.578124999999996)"/><use xlink:href="#ao" transform="matrix(1,0,0,1,125,646.9765955468787) translate(18.99088541666667 57.24479166666666)"/><use xlink:href="#ap" transform="matrix(1,0,0,1,125,646.9765955468787) translate(66.99869791666666 57.24479166666666)"/></g><path d="M445.76 709l2.53 2.53.9 3.42v68.28h-2V715.2l-.7-2.63-1.78-1.78-2.64-.72h-24.4v-2h24.66zm-146.26 1.08v-2h54.16v2z" stroke="#f2f3f5" stroke-width=".05" fill="#f2f3f5"/><path d="M449.2 783.48l-2 1.5v-1.78h2z" fill="#f2f3f5"/><path d="M449.23 783.5l-2.05 1.53v-1.85h2.05zm-2-.27v1.7l1.95-1.46v-.24z" stroke="#f2f3f5" stroke-width=".05" fill="#f2f3f5"/><path d="M298.5 713.72l-14.26-4.64 14.26-4.64z" fill="#f2f3f5"/><path d="M299.5 715.1l-18.5-6.02 18.5-6zm-12.03-6.02l10.03 3.26v-6.52z" stroke="#f2f3f5" stroke-width=".05" fill="#f2f3f5"/><g><use xlink:href="#aq" transform="matrix(1,0,0,1,353.6630262834141,700.1908775697789) translate(0 14.21875)"/></g><path d="M200.88 822.8h-2l.02-37.54h2zm.12-59.78h-2v-35.7h2z" stroke="#e81313" stroke-width=".05" fill="#e81313"/><path d="M201 727.34h-2v-1.03h2z" fill="#e81313"/><path d="M201.03 727.36h-2.06v-1.08h2.06zm-2-1.03v.98h1.94v-.97z" stroke="#e81313" stroke-width=".05" fill="#e81313"/><path d="M199.88 838.07l-4.63-14.26h9.27z" fill="#e81313"/><path d="M199.88 841.3l-6-18.5h12zm-3.26-16.5l3.26 10.04 3.26-10.03z" stroke="#e81313" stroke-width=".05" fill="#e81313"/><g><use xlink:href="#ar" transform="matrix(1,0,0,1,173.2975999488772,763.0160349153821) translate(0 17.794357723246193)"/></g><path d="M313.55 650.93H282v-2h31.55zm620.97-6.87l-.92 3.4-2.53 2.54-3.42.93H407v-2h520.4l2.63-.72 1.78-1.76.72-2.65V506.47h2z" stroke="#6db1ff" stroke-width=".05" fill="#6db1ff"/><path d="M282.03 650.93H281v-2h1.03z" fill="#6db1ff"/><path d="M282.05 650.95h-1.07v-2.05h1.07zm-1.03-2v1.95h.98v-1.95z" stroke="#6db1ff" stroke-width=".05" fill="#6db1ff"/><path d="M938.16 505.48h-9.27l4.62-14.27z" fill="#6db1ff"/><path d="M939.53 506.48H927.5l6.02-18.5zm-9.27-2h6.52l-3.26-10.03z" stroke="#6db1ff" stroke-width=".05" fill="#6db1ff"/><g><use xlink:href="#as" transform="matrix(1,0,0,1,313.5451087526477,638.8012634466994) translate(0 17.794357723246193)"/><use xlink:href="#at" transform="matrix(1,0,0,1,313.5451087526477,638.8012634466994) translate(53.4048001022456 17.794357723246193)"/></g><path d="M775.14 1044.98h-2v-28.9h2zm-3.45-83.4l2.52 2.52.92 3.42v30.78h-2v-30.52l-.7-2.64-1.8-1.78-2.63-.7h-42.94v-2h43.2z" stroke="#f2f3f5" stroke-width=".05" fill="#f2f3f5"/><path d="M775.14 1045.98h-2v-1.03h2z" fill="#f2f3f5"/><path d="M775.17 1046h-2.05v-1.07h2.05zm-2-1.02v.97h1.95v-.97zM725.08 962.65h-1.02v-2h1.02z" stroke="#f2f3f5" stroke-width=".05" fill="#f2f3f5"/><g><use xlink:href="#au" transform="matrix(1,0,0,1,726.1324118589744,998.2970085470084) translate(0 14.21875)"/><use xlink:href="#av" transform="matrix(1,0,0,1,726.1324118589744,998.2970085470084) translate(32.005208333333336 14.21875)"/></g><defs><radialGradient gradientUnits="userSpaceOnUse" id="a" fx="200.12" fy="273.64" cx="200.12" cy="273.64" r="101.95"><stop offset="0%" stop-color="#87dd8e"/><stop offset="50.98%" stop-color="#54c45e"/><stop offset="100%" stop-color="#369e3f"/></radialGradient><path fill="#fff" d="M609-1161c-125 0-218 36-218 153 0 149 166 161 290 196 235 67 484 129 484 421 0 300-239 408-554 411C302 23 93-114 38-367l285-37c32 128 131 205 296 203 143-2 259-31 259-173 0-164-197-172-333-212-218-64-441-131-441-405 0-276 231-379 511-379 299 0 463 114 513 363l-286 29c-28-115-96-183-233-183" id="aw"/><path fill="#fff" d="M711 13c-250 0-386-99-385-349l2-556H161v-190h181l88-282h176v282h385v190H606v530c-10 130 45 186 174 184 91-2 176-11 255-27v186C933-1 833 13 711 13" id="ax"/><path fill="#fff" d="M775-193C708-75 621 20 439 20 226 20 106-93 106-306c0-251 170-341 417-346l223-4c4-143-12-264-148-264-103 0-141 58-150 153l-293-14c37-219 194-321 455-321 263 0 418 130 417 390v392c1 84 5 161 89 160 21 0 42-2 62-6v152c-57 15-108 27-180 26-145 0-202-73-217-205h-6zm-256 17c168 0 234-139 227-325-166 4-347-25-347 173 0 94 33 152 120 152" id="ay"/><path fill="#fff" d="M875-1102c70 0 148 7 206 17v237c-110-17-267-37-359 15-123 69-192 207-192 395V0H250c-10-367 32-789-52-1082h271c19 69 36 149 46 228h4c52-151 151-250 356-248" id="az"/><g id="b"><use transform="matrix(0.013020833333333332,0,0,0.013020833333333332,0,0)" xlink:href="#aw"/><use transform="matrix(0.013020833333333332,0,0,0.013020833333333332,16.002604166666664,0)" xlink:href="#ax"/><use transform="matrix(0.013020833333333332,0,0,0.013020833333333332,32.00520833333333,0)" xlink:href="#ay"/><use transform="matrix(0.013020833333333332,0,0,0.013020833333333332,48.00781249999999,0)" xlink:href="#az"/><use transform="matrix(0.013020833333333332,0,0,0.013020833333333332,64.01041666666666,0)" xlink:href="#ax"/></g><path fill="#3a414a" d="M202-1349h823v156H709v1037h316V0H202v-156h316v-1037H202v-156" id="aA"/><path fill="#3a414a" d="M873-819c-18-114-119-146-250-146-163 0-245 50-245 151 0 151 170 148 294 185 182 54 388 94 388 320 0 240-189 325-439 329-245 4-410-69-454-268l159-31c24 133 136 168 295 165 144-2 270-31 270-171 0-164-195-160-331-202-167-52-350-87-350-299 0-218 173-315 413-313 220 2 373 77 412 260" id="aB"/><g id="c"><use transform="matrix(0.013020833333333332,0,0,0.013020833333333332,0,0)" xlink:href="#aA"/><use transform="matrix(0.013020833333333332,0,0,0.013020833333333332,16.002604166666664,0)" xlink:href="#aB"/></g><path fill="#3a414a" d="M682 16c-209 0-323-80-324-285v-671H190v-142h170l58-282h120v282h432v142H538v652c2 114 60 155 182 155 106 0 209-16 297-34v137C921-4 806 16 682 16" id="aC"/><path fill="#3a414a" d="M648-963c-190 6-283 138-283 336V0H185v-1484h181c-2 197 6 404-9 587h3c62-120 159-205 339-205 242 0 351 135 350 381V0H868v-695c1-168-57-273-220-268" id="aD"/><path fill="#3a414a" d="M617-1102c355 0 481 238 477 599H322c5 222 84 388 301 388 144 0 244-59 284-166l158 45C1002-72 854 20 623 20c-342 0-490-220-490-568 0-346 151-554 484-554zm291 461c-18-192-90-328-289-328-194 0-287 128-295 328h584" id="aE"/><g id="d"><use transform="matrix(0.013020833333333332,0,0,0.013020833333333332,0,0)" xlink:href="#aC"/><use transform="matrix(0.013020833333333332,0,0,0.013020833333333332,16.002604166666664,0)" xlink:href="#aD"/><use transform="matrix(0.013020833333333332,0,0,0.013020833333333332,32.00520833333333,0)" xlink:href="#aE"/></g><path fill="#3a414a" d="M736-142h380V0H134v-142h422v-1200H267v-142h469v1342" id="aF"/><path fill="#3a414a" d="M745-142h380V0H143v-142h422v-798H246v-142h499v940zM545-1292v-192h200v192H545" id="aG"/><path fill="#3a414a" d="M706-1102c241 0 344 136 343 381V0H868v-695c1-168-57-273-220-268-190 6-283 138-283 336V0H185c-3-360 6-732-6-1082h170c4 54 7 126 8 185h3c63-121 164-204 346-205" id="aH"/><path fill="#3a414a" d="M914 0L548-499l-132 98V0H236v-1484h180v927l475-525h211L663-617 1125 0H914" id="aI"/><g id="e"><use transform="matrix(0.013020833333333332,0,0,0.013020833333333332,0,0)" xlink:href="#aF"/><use transform="matrix(0.013020833333333332,0,0,0.013020833333333332,16.002604166666664,0)" xlink:href="#aG"/><use transform="matrix(0.013020833333333332,0,0,0.013020833333333332,32.00520833333333,0)" xlink:href="#aH"/><use transform="matrix(0.013020833333333332,0,0,0.013020833333333332,48.00781249999999,0)" xlink:href="#aI"/></g><path fill="#3a414a" d="M715 0H502L69-1082h202c94 253 197 500 285 758 19 57 36 126 52 183 96-335 234-626 350-941h201" id="aJ"/><path fill="#3a414a" d="M1000-272c3 95 12 159 101 161 21 0 41-3 59-7V-6c-44 10-86 16-139 16-141 2-191-84-197-217h-6C748-76 648 20 446 20c-207 0-318-120-318-322 0-266 194-348 454-354l236-4c12-191-40-305-222-305-140 0-220 47-232 172l-188-17c33-204 181-292 423-292 255 0 401 118 401 364v466zm-683-27c0 109 63 184 175 182 166-3 259-96 306-217 24-65 20-120 20-200-232 7-501-28-501 235" id="aK"/><path fill="#3a414a" d="M865-914c-3-187-2-380-2-570h180v1261c0 76 1 155 6 223H877c-8-49-9-116-10-174h-5C801-44 708 26 530 26c-135 0-234-46-297-139s-95-232-95-419c0-377 131-566 392-566 176 0 271 63 335 184zm-286-51c-222 0-255 197-255 427 0 229 31 425 253 425 237 0 286-195 286-441 0-238-52-411-284-411" id="aL"/><path fill="#3a414a" d="M594-1370c273 0 479 100 479 368 0 320-313 334-421 548-13 28-20 60-21 97H456c9-310 312-328 416-543 13-27 19-59 19-94 0-165-127-226-295-226-189 0-295 102-318 272L94-960c39-259 205-410 500-410zM448 0v-201h195V0H448" id="aM"/><g id="f"><use transform="matrix(0.013020833333333332,0,0,0.013020833333333332,0,0)" xlink:href="#aJ"/><use transform="matrix(0.013020833333333332,0,0,0.013020833333333332,16.002604166666664,0)" xlink:href="#aK"/><use transform="matrix(0.013020833333333332,0,0,0.013020833333333332,32.00520833333333,0)" xlink:href="#aF"/><use transform="matrix(0.013020833333333332,0,0,0.013020833333333332,48.00781249999999,0)" xlink:href="#aG"/><use transform="matrix(0.013020833333333332,0,0,0.013020833333333332,64.01041666666666,0)" xlink:href="#aL"/><use transform="matrix(0.013020833333333332,0,0,0.013020833333333332,80.01302083333331,0)" xlink:href="#aM"/></g><path fill="#fff" d="M1034 0L896-382H333L196 0H0l510-1349h217L1228 0h-194zM847-531c-77-225-157-447-231-674-69 231-154 451-232 674h463" id="aN"/><path fill="#fff" d="M736-142h380V0H134v-142h422v-1200H267v-142h469v1342" id="aO"/><path fill="#fff" d="M617-1102c355 0 481 238 477 599H322c5 222 84 388 301 388 144 0 244-59 284-166l158 45C1002-72 854 20 623 20c-342 0-490-220-490-568 0-346 151-554 484-554zm291 461c-18-192-90-328-289-328-194 0-287 128-295 328h584" id="aP"/><path fill="#fff" d="M839-1102c70 0 148 7 206 17v167c-112-18-268-36-363 15-129 69-208 203-208 395V0H294c-10-367 32-789-52-1082h171c21 75 41 161 48 250h5c67-152 152-270 373-270" id="aQ"/><path fill="#fff" d="M682 16c-209 0-323-80-324-285v-671H190v-142h170l58-282h120v282h432v142H538v652c2 114 60 155 182 155 106 0 209-16 297-34v137C921-4 806 16 682 16" id="aR"/><g id="g"><use transform="matrix(0.013020833333333332,0,0,0.013020833333333332,0,0)" xlink:href="#aN"/><use transform="matrix(0.013020833333333332,0,0,0.013020833333333332,16.002604166666664,0)" xlink:href="#aO"/><use transform="matrix(0.013020833333333332,0,0,0.013020833333333332,32.00520833333333,0)" xlink:href="#aP"/><use transform="matrix(0.013020833333333332,0,0,0.013020833333333332,48.00781249999999,0)" xlink:href="#aQ"/><use transform="matrix(0.013020833333333332,0,0,0.013020833333333332,64.01041666666666,0)" xlink:href="#aR"/></g><path fill="#fff" d="M648-963c-190 6-283 138-283 336V0H185v-1484h181c-2 197 6 404-9 587h3c62-120 159-205 339-205 242 0 351 135 350 381V0H868v-695c1-168-57-273-220-268" id="aS"/><g id="h"><use transform="matrix(0.013020833333333332,0,0,0.013020833333333332,0,0)" xlink:href="#aR"/><use transform="matrix(0.013020833333333332,0,0,0.013020833333333332,16.002604166666664,0)" xlink:href="#aS"/><use transform="matrix(0.013020833333333332,0,0,0.013020833333333332,32.00520833333333,0)" xlink:href="#aP"/></g><path fill="#fff" d="M528 20c-247 0-343-132-343-381v-721h180v686c-4 177 45 284 224 277 194-8 279-136 279-336v-627h181c3 360-6 732 6 1082H885c-4-54-7-126-8-185h-3C809-64 714 20 528 20" id="aT"/><path fill="#fff" d="M873-819c-18-114-119-146-250-146-163 0-245 50-245 151 0 151 170 148 294 185 182 54 388 94 388 320 0 240-189 325-439 329-245 4-410-69-454-268l159-31c24 133 136 168 295 165 144-2 270-31 270-171 0-164-195-160-331-202-167-52-350-87-350-299 0-218 173-315 413-313 220 2 373 77 412 260" id="aU"/><g id="i"><use transform="matrix(0.013020833333333332,0,0,0.013020833333333332,0,0)" xlink:href="#aT"/><use transform="matrix(0.013020833333333332,0,0,0.013020833333333332,16.002604166666664,0)" xlink:href="#aU"/><use transform="matrix(0.013020833333333332,0,0,0.013020833333333332,32.00520833333333,0)" xlink:href="#aP"/><use transform="matrix(0.013020833333333332,0,0,0.013020833333333332,48.00781249999999,0)" xlink:href="#aQ"/></g><path fill="#fff" d="M1000-272c3 95 12 159 101 161 21 0 41-3 59-7V-6c-44 10-86 16-139 16-141 2-191-84-197-217h-6C748-76 648 20 446 20c-207 0-318-120-318-322 0-266 194-348 454-354l236-4c12-191-40-305-222-305-140 0-220 47-232 172l-188-17c33-204 181-292 423-292 255 0 401 118 401 364v466zm-683-27c0 109 63 184 175 182 166-3 259-96 306-217 24-65 20-120 20-200-232 7-501-28-501 235" id="aV"/><path fill="#fff" d="M745-142h380V0H143v-142h422v-798H246v-142h499v940zM545-1292v-192h200v192H545" id="aW"/><path fill="#fff" d="M706-1102c241 0 344 136 343 381V0H868v-695c1-168-57-273-220-268-190 6-283 138-283 336V0H185c-3-360 6-732-6-1082h170c4 54 7 126 8 185h3c63-121 164-204 346-205" id="aX"/><path fill="#fff" d="M1048-32c-2 300-135 456-433 456-222-1-358-88-400-267l184-25c22 99 100 157 222 156 184-2 248-125 248-315 0-64 3-133-2-194C807-100 706-13 524-12c-306 0-381-228-381-537 0-318 85-550 400-550 164 0 271 83 325 202h3c1-60 3-134 12-185h171c-13 339-4 702-6 1050zM585-145c210-8 284-178 284-406 0-192-52-331-177-392-33-16-69-22-104-22-223 2-259 184-259 414 0 229 31 415 256 406" id="aY"/><g id="j"><use transform="matrix(0.013020833333333332,0,0,0.013020833333333332,0,0)" xlink:href="#aU"/><use transform="matrix(0.013020833333333332,0,0,0.013020833333333332,16.002604166666664,0)" xlink:href="#aR"/><use transform="matrix(0.013020833333333332,0,0,0.013020833333333332,32.00520833333333,0)" xlink:href="#aV"/><use transform="matrix(0.013020833333333332,0,0,0.013020833333333332,48.00781249999999,0)" xlink:href="#aR"/><use transform="matrix(0.013020833333333332,0,0,0.013020833333333332,64.01041666666666,0)" xlink:href="#aW"/><use transform="matrix(0.013020833333333332,0,0,0.013020833333333332,80.01302083333331,0)" xlink:href="#aX"/><use transform="matrix(0.013020833333333332,0,0,0.013020833333333332,96.01562499999997,0)" xlink:href="#aY"/></g><g id="k"><use transform="matrix(0.013020833333333332,0,0,0.013020833333333332,0,0)" xlink:href="#aR"/><use transform="matrix(0.013020833333333332,0,0,0.013020833333333332,16.002604166666664,0)" xlink:href="#aS"/><use transform="matrix(0.013020833333333332,0,0,0.013020833333333332,32.00520833333333,0)" xlink:href="#aP"/></g><path fill="#fff" d="M615-1102c343 0 484 203 482 560-1 347-147 562-488 562-336 0-475-219-479-562-4-349 156-560 485-560zm-8 989c240 0 301-180 301-429 0-245-55-427-290-427-236 0-299 181-299 427 0 243 61 429 288 429" id="aZ"/><g id="l"><use transform="matrix(0.013020833333333332,0,0,0.013020833333333332,0,0)" xlink:href="#aP"/><use transform="matrix(0.013020833333333332,0,0,0.013020833333333332,16.002604166666664,0)" xlink:href="#aQ"/><use transform="matrix(0.013020833333333332,0,0,0.013020833333333332,32.00520833333333,0)" xlink:href="#aQ"/><use transform="matrix(0.013020833333333332,0,0,0.013020833333333332,48.00781249999999,0)" xlink:href="#aZ"/><use transform="matrix(0.013020833333333332,0,0,0.013020833333333332,64.01041666666666,0)" xlink:href="#aQ"/></g><path fill="#e81313" d="M865-312c-44-312-23-686-28-1037h257V0H748L364-1010c44 304 24 668 28 1010H135v-1349h337" id="ba"/><path fill="#e81313" d="M616-1102c361 0 521 202 521 560 0 354-171 562-527 562C259 20 92-192 92-542c0-351 169-560 524-560zm-9 930c200-2 236-165 236-370 0-199-27-367-223-367-195 0-233 146-233 367 0 129 18 223 55 282s92 88 165 88" id="bb"/><g id="m"><use transform="matrix(0.010863466253508055,0,0,0.010863466253508055,0,0)" xlink:href="#ba"/><use transform="matrix(0.010863466253508055,0,0,0.010863466253508055,13.3512000255614,0)" xlink:href="#bb"/></g><path fill="#3a414a" d="M1121-976c0 225-142 341-344 379L1177 0H957L591-575H353V0H162v-1349h482c281 3 477 100 477 373zM633-726c181-1 296-73 296-247 0-149-101-223-304-223H353v470h280" id="bc"/><path fill="#3a414a" d="M530 26c-303-6-392-228-392-558 0-187 33-329 98-424s162-142 293-142c178 0 273 69 334 184 1-56 3-122 12-169h175c-6 88-6 180-6 282V425H863c1-202-4-411 4-607h-2C805-59 713 29 530 26zm47-139c234 0 286-193 286-441 0-238-55-411-284-411-223 0-255 198-255 427 0 227 33 425 253 425" id="bd"/><path fill="#3a414a" d="M528 20c-247 0-343-132-343-381v-721h180v686c-4 177 45 284 224 277 194-8 279-136 279-336v-627h181c3 360-6 732 6 1082H885c-4-54-7-126-8-185h-3C809-64 714 20 528 20" id="be"/><g id="n"><use transform="matrix(0.013020833333333332,0,0,0.013020833333333332,0,0)" xlink:href="#bc"/><use transform="matrix(0.013020833333333332,0,0,0.013020833333333332,16.002604166666664,0)" xlink:href="#aE"/><use transform="matrix(0.013020833333333332,0,0,0.013020833333333332,32.00520833333333,0)" xlink:href="#bd"/><use transform="matrix(0.013020833333333332,0,0,0.013020833333333332,48.00781249999999,0)" xlink:href="#be"/><use transform="matrix(0.013020833333333332,0,0,0.013020833333333332,64.01041666666666,0)" xlink:href="#aE"/><use transform="matrix(0.013020833333333332,0,0,0.013020833333333332,80.01302083333331,0)" xlink:href="#aB"/><use transform="matrix(0.013020833333333332,0,0,0.013020833333333332,96.01562499999997,0)" xlink:href="#aC"/></g><path fill="#3a414a" d="M1018 0H814c-67-224-138-444-200-673C552-442 476-224 407 0H204L21-1082h178c43 310 105 601 126 933 54-225 128-425 193-638h193c63 212 134 415 185 638 22-336 90-622 136-933h176" id="bf"/><path fill="#3a414a" d="M365-904c58-129 161-200 334-200 130 0 228 46 293 138s98 233 98 420c0 189-34 331-102 425S824 20 698 20c-170 0-275-64-336-184 0 55-3 116-9 164H179c5-68 6-147 6-223v-1261h180c-2 193 4 394-4 580h4zm283 791c221 0 256-197 256-427 0-229-34-425-254-425-236 0-285 195-285 441 0 237 53 411 283 411" id="bg"/><path fill="#3a414a" d="M698-1104c312 3 392 244 392 558 0 315-82 566-392 566-169 0-277-65-331-184h-5c8 188 2 394 4 589H185V-858c0-76-1-156-6-224h175c6 52 9 120 10 178h4c58-122 150-202 330-200zm-49 991c225 0 255-203 255-433 0-225-32-419-253-419-236 0-285 192-285 441 0 237 53 411 283 411" id="bh"/><path fill="#3a414a" d="M1048-32c-2 300-135 456-433 456-222-1-358-88-400-267l184-25c22 99 100 157 222 156 184-2 248-125 248-315 0-64 3-133-2-194C807-100 706-13 524-12c-306 0-381-228-381-537 0-318 85-550 400-550 164 0 271 83 325 202h3c1-60 3-134 12-185h171c-13 339-4 702-6 1050zM585-145c210-8 284-178 284-406 0-192-52-331-177-392-33-16-69-22-104-22-223 2-259 184-259 414 0 229 31 415 256 406" id="bi"/><g id="o"><use transform="matrix(0.013020833333333332,0,0,0.013020833333333332,0,0)" xlink:href="#bf"/><use transform="matrix(0.013020833333333332,0,0,0.013020833333333332,16.002604166666664,0)" xlink:href="#aE"/><use transform="matrix(0.013020833333333332,0,0,0.013020833333333332,32.00520833333333,0)" xlink:href="#bg"/><use transform="matrix(0.013020833333333332,0,0,0.013020833333333332,48.00781249999999,0)" xlink:href="#bh"/><use transform="matrix(0.013020833333333332,0,0,0.013020833333333332,64.01041666666666,0)" xlink:href="#aK"/><use transform="matrix(0.013020833333333332,0,0,0.013020833333333332,80.01302083333331,0)" xlink:href="#bi"/><use transform="matrix(0.013020833333333332,0,0,0.013020833333333332,96.01562499999997,0)" xlink:href="#aE"/></g><path fill="#3a414a" d="M839-1335c-182-6-269 67-259 253h491v142H580V0H400v-940H138v-142h262c-15-293 132-408 418-402 94 2 200 7 281 21v145c-75-10-177-14-260-17" id="bj"/><path fill="#3a414a" d="M839-1102c70 0 148 7 206 17v167c-112-18-268-36-363 15-129 69-208 203-208 395V0H294c-10-367 32-789-52-1082h171c21 75 41 161 48 250h5c67-152 152-270 373-270" id="bk"/><path fill="#3a414a" d="M615-1102c343 0 484 203 482 560-1 347-147 562-488 562-336 0-475-219-479-562-4-349 156-560 485-560zm-8 989c240 0 301-180 301-429 0-245-55-427-290-427-236 0-299 181-299 427 0 243 61 429 288 429" id="bl"/><path fill="#3a414a" d="M904-1102c199 0 220 177 220 381V0H956v-686c-3-114 0-215-60-264-70-33-125-4-158 71-26 56-39 140-39 252V0H531v-686c-3-114-1-215-61-264-78-41-136 24-157 84-24 69-39 159-39 259V0H105c-3-360 6-732-6-1082h149c6 50 3 123 8 175 36-100 83-195 216-195 135 0 166 79 196 196 42-105 93-196 236-196" id="bm"/><g id="p"><use transform="matrix(0.013020833333333332,0,0,0.013020833333333332,0,0)" xlink:href="#bj"/><use transform="matrix(0.013020833333333332,0,0,0.013020833333333332,16.002604166666664,0)" xlink:href="#bk"/><use transform="matrix(0.013020833333333332,0,0,0.013020833333333332,32.00520833333333,0)" xlink:href="#bl"/><use transform="matrix(0.013020833333333332,0,0,0.013020833333333332,48.00781249999999,0)" xlink:href="#bm"/></g><g id="q"><use transform="matrix(0.013020833333333332,0,0,0.013020833333333332,0,0)" xlink:href="#be"/><use transform="matrix(0.013020833333333332,0,0,0.013020833333333332,16.002604166666664,0)" xlink:href="#aB"/><use transform="matrix(0.013020833333333332,0,0,0.013020833333333332,32.00520833333333,0)" xlink:href="#aE"/><use transform="matrix(0.013020833333333332,0,0,0.013020833333333332,48.00781249999999,0)" xlink:href="#bk"/></g><path fill="#008a0e" d="M761-556V0H467v-556L3-1349h309l300 566 304-566h309" id="bn"/><path fill="#008a0e" d="M1113-274C1038-96 884 20 626 20c-352 0-526-209-526-566 0-358 185-556 530-556 358 0 496 251 499 615H395c5 180 68 319 245 319 102 0 186-45 208-129zM857-663c-6-177-128-307-315-247-94 30-141 121-145 247h460" id="bo"/><path fill="#008a0e" d="M622-916c-112 2-200 14-200 111 0 90 89 101 168 121 234 58 514 77 514 368C1104-4 751 54 434 5 267-21 161-112 121-270l247-37c24 111 113 145 252 141 114-3 226-12 226-124 0-101-103-113-192-134-225-54-490-76-490-351 0-247 201-328 458-328 245 0 413 88 457 292l-249 26c-16-98-92-133-208-131" id="bp"/><g id="r"><use transform="matrix(0.010863466253508055,0,0,0.010863466253508055,0,0)" xlink:href="#bn"/><use transform="matrix(0.010863466253508055,0,0,0.010863466253508055,13.3512000255614,0)" xlink:href="#bo"/><use transform="matrix(0.010863466253508055,0,0,0.010863466253508055,26.7024000511228,0)" xlink:href="#bp"/></g><path fill="#e81313" d="M711 13c-250 0-386-99-385-349l2-556H161v-190h181l88-282h176v282h385v190H606v530c-10 130 45 186 174 184 91-2 176-11 255-27v186C933-1 833 13 711 13" id="bq"/><g id="s"><use transform="matrix(0.010863466253508055,0,0,0.010863466253508055,0,0)" xlink:href="#ba"/><use transform="matrix(0.010863466253508055,0,0,0.010863466253508055,13.3512000255614,0)" xlink:href="#bb"/><use transform="matrix(0.010863466253508055,0,0,0.010863466253508055,26.7024000511228,0)" xlink:href="#bq"/></g><path fill="#e81313" d="M1109-360C1066-122 902 20 624 20c-347 0-514-209-514-555 0-353 168-567 518-567 270 0 425 136 473 361l-283 14c-16-106-75-183-196-182-75 0-130 31-165 93s-52 152-52 270c0 249 74 374 221 374 120 0 188-82 201-201" id="br"/><path fill="#e81313" d="M875-1102c70 0 148 7 206 17v237c-110-17-267-37-359 15-123 69-192 207-192 395V0H250c-10-367 32-789-52-1082h271c19 69 36 149 46 228h4c52-151 151-250 356-248" id="bs"/><path fill="#e81313" d="M1113-274C1038-96 884 20 626 20c-352 0-526-209-526-566 0-358 185-556 530-556 358 0 496 251 499 615H395c5 180 68 319 245 319 102 0 186-45 208-129zM857-663c-6-177-128-307-315-247-94 30-141 121-145 247h460" id="bt"/><g id="t"><use transform="matrix(0.010863466253508055,0,0,0.010863466253508055,0,0)" xlink:href="#br"/><use transform="matrix(0.010863466253508055,0,0,0.010863466253508055,13.3512000255614,0)" xlink:href="#bb"/><use transform="matrix(0.010863466253508055,0,0,0.010863466253508055,26.7024000511228,0)" xlink:href="#bs"/><use transform="matrix(0.010863466253508055,0,0,0.010863466253508055,40.053600076684205,0)" xlink:href="#bs"/><use transform="matrix(0.010863466253508055,0,0,0.010863466253508055,53.4048001022456,0)" xlink:href="#bt"/><use transform="matrix(0.010863466253508055,0,0,0.010863466253508055,66.756000127807,0)" xlink:href="#br"/><use transform="matrix(0.010863466253508055,0,0,0.010863466253508055,80.1072001533684,0)" xlink:href="#bq"/></g><path fill="#e81313" d="M844-1321c-130 0-195 53-191 182v57h443v190H653V0H373v-892H117v-190h256v-83c5-247 162-348 422-349 120-1 232 13 327 28v184c-84-10-183-19-278-19" id="bu"/><path fill="#e81313" d="M934-1102c199 0 220 177 220 381V0H926c-2-260 10-533-4-785-4-72-14-138-83-138-34 0-61 27-81 81s-29 134-29 241V0H501c-2-260 9-533-5-785-4-72-13-138-82-138-46 0-65 47-80 93-21 67-30 155-30 248V0H75c-3-360 6-732-6-1082h209c6 50 3 123 8 175 36-100 83-195 216-195 135 0 166 79 196 196 42-105 93-196 236-196" id="bv"/><path fill="#e81313" d="M775-193C708-75 621 20 439 20 226 20 106-93 106-306c0-251 170-341 417-346l223-4c4-143-12-264-148-264-103 0-141 58-150 153l-293-14c37-219 194-321 455-321 263 0 418 130 417 390v392c1 84 5 161 89 160 21 0 42-2 62-6v152c-57 15-108 27-180 26-145 0-202-73-217-205h-6zm-256 17c168 0 234-139 227-325-166 4-347-25-347 173 0 94 33 152 120 152" id="bw"/><g id="u"><use transform="matrix(0.010863466253508055,0,0,0.010863466253508055,0,0)" xlink:href="#bu"/><use transform="matrix(0.010863466253508055,0,0,0.010863466253508055,13.3512000255614,0)" xlink:href="#bb"/><use transform="matrix(0.010863466253508055,0,0,0.010863466253508055,26.7024000511228,0)" xlink:href="#bs"/><use transform="matrix(0.010863466253508055,0,0,0.010863466253508055,40.053600076684205,0)" xlink:href="#bv"/><use transform="matrix(0.010863466253508055,0,0,0.010863466253508055,53.4048001022456,0)" xlink:href="#bw"/><use transform="matrix(0.010863466253508055,0,0,0.010863466253508055,66.756000127807,0)" xlink:href="#bq"/></g><path fill="#008a0e" d="M872-915c-35-112-84-223-220-223-91 0-156 41-204 116-89 137-87 550 2 688 51 79 116 122 209 122 150 0 197-126 240-244l273 52C1094-168 961 20 656 20 239 20 80-262 80-681c0-418 154-689 568-689 289 0 425 167 496 389" id="bx"/><path fill="#008a0e" d="M616-1102c361 0 521 202 521 560 0 354-171 562-527 562C259 20 92-192 92-542c0-351 169-560 524-560zm-9 930c200-2 236-165 236-370 0-199-27-367-223-367-195 0-233 146-233 367 0 129 18 223 55 282s92 88 165 88" id="by"/><path fill="#008a0e" d="M875-1102c70 0 148 7 206 17v237c-110-17-267-37-359 15-123 69-192 207-192 395V0H250c-10-367 32-789-52-1082h271c19 69 36 149 46 228h4c52-151 151-250 356-248" id="bz"/><path fill="#008a0e" d="M1109-360C1066-122 902 20 624 20c-347 0-514-209-514-555 0-353 168-567 518-567 270 0 425 136 473 361l-283 14c-16-106-75-183-196-182-75 0-130 31-165 93s-52 152-52 270c0 249 74 374 221 374 120 0 188-82 201-201" id="bA"/><path fill="#008a0e" d="M711 13c-250 0-386-99-385-349l2-556H161v-190h181l88-282h176v282h385v190H606v530c-10 130 45 186 174 184 91-2 176-11 255-27v186C933-1 833 13 711 13" id="bB"/><g id="v"><use transform="matrix(0.010863466253508055,0,0,0.010863466253508055,0,0)" xlink:href="#bx"/><use transform="matrix(0.010863466253508055,0,0,0.010863466253508055,13.3512000255614,0)" xlink:href="#by"/><use transform="matrix(0.010863466253508055,0,0,0.010863466253508055,26.7024000511228,0)" xlink:href="#bz"/><use transform="matrix(0.010863466253508055,0,0,0.010863466253508055,40.053600076684205,0)" xlink:href="#bz"/><use transform="matrix(0.010863466253508055,0,0,0.010863466253508055,53.4048001022456,0)" xlink:href="#bo"/><use transform="matrix(0.010863466253508055,0,0,0.010863466253508055,66.756000127807,0)" xlink:href="#bA"/><use transform="matrix(0.010863466253508055,0,0,0.010863466253508055,80.1072001533684,0)" xlink:href="#bB"/></g><path fill="#008a0e" d="M844-1321c-130 0-195 53-191 182v57h443v190H653V0H373v-892H117v-190h256v-83c5-247 162-348 422-349 120-1 232 13 327 28v184c-84-10-183-19-278-19" id="bC"/><path fill="#008a0e" d="M934-1102c199 0 220 177 220 381V0H926c-2-260 10-533-4-785-4-72-14-138-83-138-34 0-61 27-81 81s-29 134-29 241V0H501c-2-260 9-533-5-785-4-72-13-138-82-138-46 0-65 47-80 93-21 67-30 155-30 248V0H75c-3-360 6-732-6-1082h209c6 50 3 123 8 175 36-100 83-195 216-195 135 0 166 79 196 196 42-105 93-196 236-196" id="bD"/><path fill="#008a0e" d="M775-193C708-75 621 20 439 20 226 20 106-93 106-306c0-251 170-341 417-346l223-4c4-143-12-264-148-264-103 0-141 58-150 153l-293-14c37-219 194-321 455-321 263 0 418 130 417 390v392c1 84 5 161 89 160 21 0 42-2 62-6v152c-57 15-108 27-180 26-145 0-202-73-217-205h-6zm-256 17c168 0 234-139 227-325-166 4-347-25-347 173 0 94 33 152 120 152" id="bE"/><g id="w"><use transform="matrix(0.010863466253508055,0,0,0.010863466253508055,0,0)" xlink:href="#bC"/><use transform="matrix(0.010863466253508055,0,0,0.010863466253508055,13.3512000255614,0)" xlink:href="#by"/><use transform="matrix(0.010863466253508055,0,0,0.010863466253508055,26.7024000511228,0)" xlink:href="#bz"/><use transform="matrix(0.010863466253508055,0,0,0.010863466253508055,40.053600076684205,0)" xlink:href="#bD"/><use transform="matrix(0.010863466253508055,0,0,0.010863466253508055,53.4048001022456,0)" xlink:href="#bE"/><use transform="matrix(0.010863466253508055,0,0,0.010863466253508055,66.756000127807,0)" xlink:href="#bB"/></g><path fill="#3a414a" d="M162 0v-1349h919v156H353v422h668v154H353v461h769V0H162" id="bF"/><path fill="#3a414a" d="M932 0L611-444 288 0H94l415-556-397-526h199l300 421 298-421h201L713-558 1133 0H932" id="bG"/><path fill="#3a414a" d="M631 20c-350 0-501-215-501-562 0-355 162-560 502-560 250 0 399 118 446 323l-192 14c-23-124-109-196-262-196-242 0-305 171-305 415 1 245 61 427 304 427 151 0 248-77 267-215l190 12C1039-107 883 20 631 20" id="bH"/><g id="x"><use transform="matrix(0.013020833333333332,0,0,0.013020833333333332,0,0)" xlink:href="#bF"/><use transform="matrix(0.013020833333333332,0,0,0.013020833333333332,16.002604166666664,0)" xlink:href="#bG"/><use transform="matrix(0.013020833333333332,0,0,0.013020833333333332,32.00520833333333,0)" xlink:href="#aC"/><use transform="matrix(0.013020833333333332,0,0,0.013020833333333332,48.00781249999999,0)" xlink:href="#bk"/><use transform="matrix(0.013020833333333332,0,0,0.013020833333333332,64.01041666666666,0)" xlink:href="#aK"/><use transform="matrix(0.013020833333333332,0,0,0.013020833333333332,80.01302083333331,0)" xlink:href="#bH"/><use transform="matrix(0.013020833333333332,0,0,0.013020833333333332,96.01562499999997,0)" xlink:href="#aC"/></g><g id="y"><use transform="matrix(0.013020833333333332,0,0,0.013020833333333332,0,0)" xlink:href="#aE"/><use transform="matrix(0.013020833333333332,0,0,0.013020833333333332,16.002604166666664,0)" xlink:href="#bk"/><use transform="matrix(0.013020833333333332,0,0,0.013020833333333332,32.00520833333333,0)" xlink:href="#bk"/><use transform="matrix(0.013020833333333332,0,0,0.013020833333333332,48.00781249999999,0)" xlink:href="#bl"/><use transform="matrix(0.013020833333333332,0,0,0.013020833333333332,64.01041666666666,0)" xlink:href="#bk"/><use transform="matrix(0.013020833333333332,0,0,0.013020833333333332,80.01302083333331,0)" xlink:href="#aB"/></g><g id="z"><use transform="matrix(0.013020833333333332,0,0,0.013020833333333332,0,0)" xlink:href="#aG"/><use transform="matrix(0.013020833333333332,0,0,0.013020833333333332,16.002604166666664,0)" xlink:href="#bj"/></g><path fill="#3a414a" d="M168 279c222 39 310-114 368-290L66-1082h192c120 299 249 590 362 896 115-301 235-597 351-896h190L705 0c-65 164-130 320-275 396-67 36-177 35-262 18V279" id="bI"/><path fill="#3a414a" d="M496 0v-299h235V0H496" id="bJ"/><g id="A"><use transform="matrix(0.013020833333333332,0,0,0.013020833333333332,0,0)" xlink:href="#aK"/><use transform="matrix(0.013020833333333332,0,0,0.013020833333333332,16.002604166666664,0)" xlink:href="#aH"/><use transform="matrix(0.013020833333333332,0,0,0.013020833333333332,32.00520833333333,0)" xlink:href="#bI"/><use transform="matrix(0.013020833333333332,0,0,0.013020833333333332,48.00781249999999,0)" xlink:href="#bJ"/></g><path fill="#f2f3f5" d="M802-711c201 25 350 118 350 331C1152-95 921 0 634 0H162v-1349c401 9 908-74 908 327 0 184-111 275-268 311zm-224-69c174-2 300-51 300-218 0-163-124-198-302-198H353v416h225zM353-153c281-2 612 44 606-244-5-271-329-233-606-234v478" id="bK"/><path fill="#f2f3f5" d="M617-1102c355 0 481 238 477 599H322c5 222 84 388 301 388 144 0 244-59 284-166l158 45C1002-72 854 20 623 20c-342 0-490-220-490-568 0-346 151-554 484-554zm291 461c-18-192-90-328-289-328-194 0-287 128-295 328h584" id="bL"/><path fill="#f2f3f5" d="M1000-272c3 95 12 159 101 161 21 0 41-3 59-7V-6c-44 10-86 16-139 16-141 2-191-84-197-217h-6C748-76 648 20 446 20c-207 0-318-120-318-322 0-266 194-348 454-354l236-4c12-191-40-305-222-305-140 0-220 47-232 172l-188-17c33-204 181-292 423-292 255 0 401 118 401 364v466zm-683-27c0 109 63 184 175 182 166-3 259-96 306-217 24-65 20-120 20-200-232 7-501-28-501 235" id="bM"/><path fill="#f2f3f5" d="M528 20c-247 0-343-132-343-381v-721h180v686c-4 177 45 284 224 277 194-8 279-136 279-336v-627h181c3 360-6 732 6 1082H885c-4-54-7-126-8-185h-3C809-64 714 20 528 20" id="bN"/><path fill="#f2f3f5" d="M682 16c-209 0-323-80-324-285v-671H190v-142h170l58-282h120v282h432v142H538v652c2 114 60 155 182 155 106 0 209-16 297-34v137C921-4 806 16 682 16" id="bO"/><path fill="#f2f3f5" d="M745-142h380V0H143v-142h422v-798H246v-142h499v940zM545-1292v-192h200v192H545" id="bP"/><path fill="#f2f3f5" d="M839-1335c-182-6-269 67-259 253h491v142H580V0H400v-940H138v-142h262c-15-293 132-408 418-402 94 2 200 7 281 21v145c-75-10-177-14-260-17" id="bQ"/><path fill="#f2f3f5" d="M736-142h380V0H134v-142h422v-1200H267v-142h469v1342" id="bR"/><path fill="#f2f3f5" d="M614-1226c-167 1-283 53-283 213 0 183 186 193 334 234 230 63 463 120 463 409 0 286-219 387-518 390C309 23 131-98 79-338l185-37c34 165 149 248 351 246 184-2 324-58 324-238 0-203-207-221-372-266-210-57-422-111-422-377 0-267 201-356 470-360 279-5 430 101 480 324l-188 33c-28-141-121-215-293-213" id="bS"/><path fill="#f2f3f5" d="M615-1102c343 0 484 203 482 560-1 347-147 562-488 562-336 0-475-219-479-562-4-349 156-560 485-560zm-8 989c240 0 301-180 301-429 0-245-55-427-290-427-236 0-299 181-299 427 0 243 61 429 288 429" id="bT"/><path fill="#f2f3f5" d="M698-1104c312 3 392 244 392 558 0 315-82 566-392 566-169 0-277-65-331-184h-5c8 188 2 394 4 589H185V-858c0-76-1-156-6-224h175c6 52 9 120 10 178h4c58-122 150-202 330-200zm-49 991c225 0 255-203 255-433 0-225-32-419-253-419-236 0-285 192-285 441 0 237 53 411 283 411" id="bU"/><g id="B"><use transform="matrix(0.013020833333333332,0,0,0.013020833333333332,0,0)" xlink:href="#bK"/><use transform="matrix(0.013020833333333332,0,0,0.013020833333333332,16.002604166666664,0)" xlink:href="#bL"/><use transform="matrix(0.013020833333333332,0,0,0.013020833333333332,32.00520833333333,0)" xlink:href="#bM"/><use transform="matrix(0.013020833333333332,0,0,0.013020833333333332,48.00781249999999,0)" xlink:href="#bN"/><use transform="matrix(0.013020833333333332,0,0,0.013020833333333332,64.01041666666666,0)" xlink:href="#bO"/><use transform="matrix(0.013020833333333332,0,0,0.013020833333333332,80.01302083333331,0)" xlink:href="#bP"/><use transform="matrix(0.013020833333333332,0,0,0.013020833333333332,96.01562499999997,0)" xlink:href="#bQ"/><use transform="matrix(0.013020833333333332,0,0,0.013020833333333332,112.01822916666663,0)" xlink:href="#bN"/><use transform="matrix(0.013020833333333332,0,0,0.013020833333333332,128.0208333333333,0)" xlink:href="#bR"/><use transform="matrix(0.013020833333333332,0,0,0.013020833333333332,144.02343749999994,0)" xlink:href="#bS"/><use transform="matrix(0.013020833333333332,0,0,0.013020833333333332,160.0260416666666,0)" xlink:href="#bT"/><use transform="matrix(0.013020833333333332,0,0,0.013020833333333332,176.02864583333326,0)" xlink:href="#bN"/><use transform="matrix(0.013020833333333332,0,0,0.013020833333333332,192.03124999999991,0)" xlink:href="#bU"/></g><path fill="#f2f3f5" d="M365-904c58-129 161-200 334-200 130 0 228 46 293 138s98 233 98 420c0 189-34 331-102 425S824 20 698 20c-170 0-275-64-336-184 0 55-3 116-9 164H179c5-68 6-147 6-223v-1261h180c-2 193 4 394-4 580h4zm283 791c221 0 256-197 256-427 0-229-34-425-254-425-236 0-285 195-285 441 0 237 53 411 283 411" id="bV"/><path fill="#f2f3f5" d="M839-1102c70 0 148 7 206 17v167c-112-18-268-36-363 15-129 69-208 203-208 395V0H294c-10-367 32-789-52-1082h171c21 75 41 161 48 250h5c67-152 152-270 373-270" id="bW"/><path fill="#f2f3f5" d="M168 279c222 39 310-114 368-290L66-1082h192c120 299 249 590 362 896 115-301 235-597 351-896h190L705 0c-65 164-130 320-275 396-67 36-177 35-262 18V279" id="bX"/><g id="C"><use transform="matrix(0.013020833333333332,0,0,0.013020833333333332,0,0)" xlink:href="#bR"/><use transform="matrix(0.013020833333333332,0,0,0.013020833333333332,16.002604166666664,0)" xlink:href="#bP"/><use transform="matrix(0.013020833333333332,0,0,0.013020833333333332,32.00520833333333,0)" xlink:href="#bV"/><use transform="matrix(0.013020833333333332,0,0,0.013020833333333332,48.00781249999999,0)" xlink:href="#bW"/><use transform="matrix(0.013020833333333332,0,0,0.013020833333333332,64.01041666666666,0)" xlink:href="#bM"/><use transform="matrix(0.013020833333333332,0,0,0.013020833333333332,80.01302083333331,0)" xlink:href="#bW"/><use transform="matrix(0.013020833333333332,0,0,0.013020833333333332,96.01562499999997,0)" xlink:href="#bX"/></g><path fill="#f2f3f5" d="M873-819c-18-114-119-146-250-146-163 0-245 50-245 151 0 151 170 148 294 185 182 54 388 94 388 320 0 240-189 325-439 329-245 4-410-69-454-268l159-31c24 133 136 168 295 165 144-2 270-31 270-171 0-164-195-160-331-202-167-52-350-87-350-299 0-218 173-315 413-313 220 2 373 77 412 260" id="bY"/><g id="D"><use transform="matrix(0.013020833333333332,0,0,0.013020833333333332,0,0)" xlink:href="#bP"/><use transform="matrix(0.013020833333333332,0,0,0.013020833333333332,16.002604166666664,0)" xlink:href="#bY"/></g><path fill="#f2f3f5" d="M865-914c-3-187-2-380-2-570h180v1261c0 76 1 155 6 223H877c-8-49-9-116-10-174h-5C801-44 708 26 530 26c-135 0-234-46-297-139s-95-232-95-419c0-377 131-566 392-566 176 0 271 63 335 184zm-286-51c-222 0-255 197-255 427 0 229 31 425 253 425 237 0 286-195 286-441 0-238-52-411-284-411" id="bZ"/><path fill="#f2f3f5" d="M496 0v-299h235V0H496" id="ca"/><g id="E"><use transform="matrix(0.013020833333333332,0,0,0.013020833333333332,0,0)" xlink:href="#bN"/><use transform="matrix(0.013020833333333332,0,0,0.013020833333333332,16.002604166666664,0)" xlink:href="#bY"/><use transform="matrix(0.013020833333333332,0,0,0.013020833333333332,32.00520833333333,0)" xlink:href="#bL"/><use transform="matrix(0.013020833333333332,0,0,0.013020833333333332,48.00781249999999,0)" xlink:href="#bZ"/><use transform="matrix(0.013020833333333332,0,0,0.013020833333333332,64.01041666666666,0)" xlink:href="#ca"/></g><path fill="#3a414a" d="M650-1214c-281 0-336 244-336 533 0 295 60 546 347 546 188 0 263-142 322-282l159 65C1058-155 935 20 659 20c-401 0-546-295-546-701 0-407 135-689 536-689 264 0 391 146 466 335l-168 65c-47-129-127-244-297-244" id="cb"/><path fill="#3a414a" d="M334-464v-160h560v160H334" id="cc"/><g id="F"><use transform="matrix(0.013020833333333332,0,0,0.013020833333333332,0,0)" xlink:href="#cb"/><use transform="matrix(0.013020833333333332,0,0,0.013020833333333332,16.002604166666664,0)" xlink:href="#aF"/><use transform="matrix(0.013020833333333332,0,0,0.013020833333333332,32.00520833333333,0)" xlink:href="#aE"/><use transform="matrix(0.013020833333333332,0,0,0.013020833333333332,48.00781249999999,0)" xlink:href="#aK"/><use transform="matrix(0.013020833333333332,0,0,0.013020833333333332,64.01041666666666,0)" xlink:href="#aH"/><use transform="matrix(0.013020833333333332,0,0,0.013020833333333332,80.01302083333331,0)" xlink:href="#cc"/><use transform="matrix(0.013020833333333332,0,0,0.013020833333333332,96.01562499999997,0)" xlink:href="#be"/><use transform="matrix(0.013020833333333332,0,0,0.013020833333333332,112.01822916666663,0)" xlink:href="#bh"/></g><g id="G"><use transform="matrix(0.013020833333333332,0,0,0.013020833333333332,0,0)" xlink:href="#bk"/><use transform="matrix(0.013020833333333332,0,0,0.013020833333333332,16.002604166666664,0)" xlink:href="#aE"/><use transform="matrix(0.013020833333333332,0,0,0.013020833333333332,32.00520833333333,0)" xlink:href="#bd"/><use transform="matrix(0.013020833333333332,0,0,0.013020833333333332,48.00781249999999,0)" xlink:href="#be"/><use transform="matrix(0.013020833333333332,0,0,0.013020833333333332,64.01041666666666,0)" xlink:href="#aE"/><use transform="matrix(0.013020833333333332,0,0,0.013020833333333332,80.01302083333331,0)" xlink:href="#aB"/><use transform="matrix(0.013020833333333332,0,0,0.013020833333333332,96.01562499999997,0)" xlink:href="#aC"/><use transform="matrix(0.013020833333333332,0,0,0.013020833333333332,112.01822916666663,0)" xlink:href="#aE"/><use transform="matrix(0.013020833333333332,0,0,0.013020833333333332,128.0208333333333,0)" xlink:href="#aL"/></g><g id="H"><use transform="matrix(0.013020833333333332,0,0,0.013020833333333332,0,0)" xlink:href="#aL"/><use transform="matrix(0.013020833333333332,0,0,0.013020833333333332,16.002604166666664,0)" xlink:href="#aK"/><use transform="matrix(0.013020833333333332,0,0,0.013020833333333332,32.00520833333333,0)" xlink:href="#aC"/><use transform="matrix(0.013020833333333332,0,0,0.013020833333333332,48.00781249999999,0)" xlink:href="#aK"/></g><path fill="#f2f3f5" d="M650-216c90 0 157-35 208-74v-235H584v-218h544v558C1004-84 858 20 635 20 235 20 80-276 80-681c0-416 146-689 558-689 277 0 398 160 462 375l-274 54c-31-108-73-197-185-197-231 0-262 217-262 457 0 149 22 263 67 344s113 121 204 121" id="cd"/><path fill="#f2f3f5" d="M616-1102c361 0 521 202 521 560 0 354-171 562-527 562C259 20 92-192 92-542c0-351 169-560 524-560zm-9 930c200-2 236-165 236-370 0-199-27-367-223-367-195 0-233 146-233 367 0 129 18 223 55 282s92 88 165 88" id="ce"/><path fill="#f2f3f5" d="M711 13c-250 0-386-99-385-349l2-556H161v-190h181l88-282h176v282h385v190H606v530c-10 130 45 186 174 184 91-2 176-11 255-27v186C933-1 833 13 711 13" id="cf"/><g id="I"><use transform="matrix(0.008680555555555556,0,0,0.008680555555555556,0,0)" xlink:href="#cd"/><use transform="matrix(0.008680555555555556,0,0,0.008680555555555556,10.668402777777779,0)" xlink:href="#ce"/><use transform="matrix(0.008680555555555556,0,0,0.008680555555555556,21.336805555555557,0)" xlink:href="#cf"/></g><path fill="#f2f3f5" d="M1113-274C1038-96 884 20 626 20c-352 0-526-209-526-566 0-358 185-556 530-556 358 0 496 251 499 615H395c5 180 68 319 245 319 102 0 186-45 208-129zM857-663c-6-177-128-307-315-247-94 30-141 121-145 247h460" id="cg"/><path fill="#f2f3f5" d="M875-1102c70 0 148 7 206 17v237c-110-17-267-37-359 15-123 69-192 207-192 395V0H250c-10-367 32-789-52-1082h271c19 69 36 149 46 228h4c52-151 151-250 356-248" id="ch"/><path fill="#f2f3f5" d="M622-916c-112 2-200 14-200 111 0 90 89 101 168 121 234 58 514 77 514 368C1104-4 751 54 434 5 267-21 161-112 121-270l247-37c24 111 113 145 252 141 114-3 226-12 226-124 0-101-103-113-192-134-225-54-490-76-490-351 0-247 201-328 458-328 245 0 413 88 457 292l-249 26c-16-98-92-133-208-131" id="ci"/><g id="J"><use transform="matrix(0.008680555555555556,0,0,0.008680555555555556,0,0)" xlink:href="#cg"/><use transform="matrix(0.008680555555555556,0,0,0.008680555555555556,10.668402777777779,0)" xlink:href="#ch"/><use transform="matrix(0.008680555555555556,0,0,0.008680555555555556,21.336805555555557,0)" xlink:href="#ch"/><use transform="matrix(0.008680555555555556,0,0,0.008680555555555556,32.005208333333336,0)" xlink:href="#ce"/><use transform="matrix(0.008680555555555556,0,0,0.008680555555555556,42.673611111111114,0)" xlink:href="#ch"/><use transform="matrix(0.008680555555555556,0,0,0.008680555555555556,53.34201388888889,0)" xlink:href="#ci"/></g><g id="K"><use transform="matrix(0.013020833333333332,0,0,0.013020833333333332,0,0)" xlink:href="#cb"/><use transform="matrix(0.013020833333333332,0,0,0.013020833333333332,16.002604166666664,0)" xlink:href="#aD"/><use transform="matrix(0.013020833333333332,0,0,0.013020833333333332,32.00520833333333,0)" xlink:href="#aE"/><use transform="matrix(0.013020833333333332,0,0,0.013020833333333332,48.00781249999999,0)" xlink:href="#bH"/><use transform="matrix(0.013020833333333332,0,0,0.013020833333333332,64.01041666666666,0)" xlink:href="#aI"/></g><g id="L"><use transform="matrix(0.013020833333333332,0,0,0.013020833333333332,0,0)" xlink:href="#aF"/><use transform="matrix(0.013020833333333332,0,0,0.013020833333333332,16.002604166666664,0)" xlink:href="#aG"/><use transform="matrix(0.013020833333333332,0,0,0.013020833333333332,32.00520833333333,0)" xlink:href="#aH"/><use transform="matrix(0.013020833333333332,0,0,0.013020833333333332,48.00781249999999,0)" xlink:href="#aI"/></g><path fill="#3a414a" d="M102-681c0-398 126-689 513-689 165 0 291 58 379 174s132 287 132 515c-1 318-88 554-298 657-123 61-317 58-438-3-206-104-288-341-288-654zm749 406c94-160 97-656-5-807-57-85-130-132-231-132-104 0-178 47-234 132-101 153-99 655 1 809 57 89 130 138 232 138 109 0 184-49 237-140" id="cj"/><g id="M"><use transform="matrix(0.013020833333333332,0,0,0.013020833333333332,0,0)" xlink:href="#cj"/><use transform="matrix(0.013020833333333332,0,0,0.013020833333333332,16.002604166666664,0)" xlink:href="#aC"/><use transform="matrix(0.013020833333333332,0,0,0.013020833333333332,32.00520833333333,0)" xlink:href="#aD"/><use transform="matrix(0.013020833333333332,0,0,0.013020833333333332,48.00781249999999,0)" xlink:href="#aE"/><use transform="matrix(0.013020833333333332,0,0,0.013020833333333332,64.01041666666666,0)" xlink:href="#bk"/></g><g id="N"><use transform="matrix(0.013020833333333332,0,0,0.013020833333333332,0,0)" xlink:href="#aL"/><use transform="matrix(0.013020833333333332,0,0,0.013020833333333332,16.002604166666664,0)" xlink:href="#aK"/><use transform="matrix(0.013020833333333332,0,0,0.013020833333333332,32.00520833333333,0)" xlink:href="#aC"/><use transform="matrix(0.013020833333333332,0,0,0.013020833333333332,48.00781249999999,0)" xlink:href="#aK"/><use transform="matrix(0.013020833333333332,0,0,0.013020833333333332,64.01041666666666,0)" xlink:href="#aM"/></g><radialGradient gradientUnits="userSpaceOnUse" id="O" fx="200" fy="892.31" cx="200" cy="892.31" r="70"><stop offset="0%" stop-color="#fd4d4d"/><stop offset="65.96%" stop-color="#e81313"/><stop offset="100%" stop-color="#b10f0f"/></radialGradient><path fill="#fff" d="M162 0v-1349h919v156H353v422h668v154H353v461h769V0H162" id="ck"/><path fill="#fff" d="M865-914c-3-187-2-380-2-570h180v1261c0 76 1 155 6 223H877c-8-49-9-116-10-174h-5C801-44 708 26 530 26c-135 0-234-46-297-139s-95-232-95-419c0-377 131-566 392-566 176 0 271 63 335 184zm-286-51c-222 0-255 197-255 427 0 229 31 425 253 425 237 0 286-195 286-441 0-238-52-411-284-411" id="cl"/><g id="P"><use transform="matrix(0.013020833333333332,0,0,0.013020833333333332,0,0)" xlink:href="#ck"/><use transform="matrix(0.013020833333333332,0,0,0.013020833333333332,16.002604166666664,0)" xlink:href="#aX"/><use transform="matrix(0.013020833333333332,0,0,0.013020833333333332,32.00520833333333,0)" xlink:href="#cl"/></g><path fill="#fff" d="M698-1104c312 3 392 244 392 558 0 315-82 566-392 566-169 0-277-65-331-184h-5c8 188 2 394 4 589H185V-858c0-76-1-156-6-224h175c6 52 9 120 10 178h4c58-122 150-202 330-200zm-49 991c225 0 255-203 255-433 0-225-32-419-253-419-236 0-285 192-285 441 0 237 53 411 283 411" id="cm"/><path fill="#fff" d="M904-1102c199 0 220 177 220 381V0H956v-686c-3-114 0-215-60-264-70-33-125-4-158 71-26 56-39 140-39 252V0H531v-686c-3-114-1-215-61-264-78-41-136 24-157 84-24 69-39 159-39 259V0H105c-3-360 6-732-6-1082h149c6 50 3 123 8 175 36-100 83-195 216-195 135 0 166 79 196 196 42-105 93-196 236-196" id="cn"/><g id="Q"><use transform="matrix(0.013020833333333332,0,0,0.013020833333333332,0,0)" xlink:href="#cm"/><use transform="matrix(0.013020833333333332,0,0,0.013020833333333332,16.002604166666664,0)" xlink:href="#aQ"/><use transform="matrix(0.013020833333333332,0,0,0.013020833333333332,32.00520833333333,0)" xlink:href="#aZ"/><use transform="matrix(0.013020833333333332,0,0,0.013020833333333332,48.00781249999999,0)" xlink:href="#aY"/><use transform="matrix(0.013020833333333332,0,0,0.013020833333333332,64.01041666666666,0)" xlink:href="#aQ"/><use transform="matrix(0.013020833333333332,0,0,0.013020833333333332,80.01302083333331,0)" xlink:href="#aV"/><use transform="matrix(0.013020833333333332,0,0,0.013020833333333332,96.01562499999997,0)" xlink:href="#cn"/></g><g id="R"><use transform="matrix(0.013020833333333332,0,0,0.013020833333333332,0,0)" xlink:href="#bc"/><use transform="matrix(0.013020833333333332,0,0,0.013020833333333332,16.002604166666664,0)" xlink:href="#aE"/><use transform="matrix(0.013020833333333332,0,0,0.013020833333333332,32.00520833333333,0)" xlink:href="#bd"/><use transform="matrix(0.013020833333333332,0,0,0.013020833333333332,48.00781249999999,0)" xlink:href="#be"/><use transform="matrix(0.013020833333333332,0,0,0.013020833333333332,64.01041666666666,0)" xlink:href="#aE"/><use transform="matrix(0.013020833333333332,0,0,0.013020833333333332,80.01302083333331,0)" xlink:href="#aB"/><use transform="matrix(0.013020833333333332,0,0,0.013020833333333332,96.01562499999997,0)" xlink:href="#aC"/></g><g id="S"><use transform="matrix(0.013020833333333332,0,0,0.013020833333333332,0,0)" xlink:href="#aJ"/><use transform="matrix(0.013020833333333332,0,0,0.013020833333333332,16.002604166666664,0)" xlink:href="#aK"/><use transform="matrix(0.013020833333333332,0,0,0.013020833333333332,32.00520833333333,0)" xlink:href="#aF"/><use transform="matrix(0.013020833333333332,0,0,0.013020833333333332,48.00781249999999,0)" xlink:href="#aG"/><use transform="matrix(0.013020833333333332,0,0,0.013020833333333332,64.01041666666666,0)" xlink:href="#aL"/><use transform="matrix(0.013020833333333332,0,0,0.013020833333333332,80.01302083333331,0)" xlink:href="#aK"/><use transform="matrix(0.013020833333333332,0,0,0.013020833333333332,96.01562499999997,0)" xlink:href="#aC"/><use transform="matrix(0.013020833333333332,0,0,0.013020833333333332,112.01822916666663,0)" xlink:href="#aG"/><use transform="matrix(0.013020833333333332,0,0,0.013020833333333332,128.0208333333333,0)" xlink:href="#bl"/><use transform="matrix(0.013020833333333332,0,0,0.013020833333333332,144.02343749999994,0)" xlink:href="#aH"/></g><g id="T"><use transform="matrix(0.013020833333333332,0,0,0.013020833333333332,0,0)" xlink:href="#bj"/><use transform="matrix(0.013020833333333332,0,0,0.013020833333333332,16.002604166666664,0)" xlink:href="#bk"/><use transform="matrix(0.013020833333333332,0,0,0.013020833333333332,32.00520833333333,0)" xlink:href="#bl"/><use transform="matrix(0.013020833333333332,0,0,0.013020833333333332,48.00781249999999,0)" xlink:href="#bm"/></g><g id="U"><use transform="matrix(0.013020833333333332,0,0,0.013020833333333332,0,0)" xlink:href="#aC"/><use transform="matrix(0.013020833333333332,0,0,0.013020833333333332,16.002604166666664,0)" xlink:href="#aD"/><use transform="matrix(0.013020833333333332,0,0,0.013020833333333332,32.00520833333333,0)" xlink:href="#aE"/></g><g id="V"><use transform="matrix(0.013020833333333332,0,0,0.013020833333333332,0,0)" xlink:href="#aJ"/><use transform="matrix(0.013020833333333332,0,0,0.013020833333333332,16.002604166666664,0)" xlink:href="#aK"/><use transform="matrix(0.013020833333333332,0,0,0.013020833333333332,32.00520833333333,0)" xlink:href="#aF"/><use transform="matrix(0.013020833333333332,0,0,0.013020833333333332,48.00781249999999,0)" xlink:href="#aG"/><use transform="matrix(0.013020833333333332,0,0,0.013020833333333332,64.01041666666666,0)" xlink:href="#aL"/><use transform="matrix(0.013020833333333332,0,0,0.013020833333333332,80.01302083333331,0)" xlink:href="#aK"/><use transform="matrix(0.013020833333333332,0,0,0.013020833333333332,96.01562499999997,0)" xlink:href="#aC"/><use transform="matrix(0.013020833333333332,0,0,0.013020833333333332,112.01822916666663,0)" xlink:href="#bl"/><use transform="matrix(0.013020833333333332,0,0,0.013020833333333332,128.0208333333333,0)" xlink:href="#bk"/></g><path fill="#3a414a" d="M622-1349c296 4 497 117 497 404 0 282-193 424-485 431H353V0H162v-1349h460zm-15 684c195-3 320-88 320-277 0-184-129-255-328-254H353v531h254" id="co"/><g id="W"><use transform="matrix(0.013020833333333332,0,0,0.013020833333333332,0,0)" xlink:href="#co"/><use transform="matrix(0.013020833333333332,0,0,0.013020833333333332,16.002604166666664,0)" xlink:href="#bk"/><use transform="matrix(0.013020833333333332,0,0,0.013020833333333332,32.00520833333333,0)" xlink:href="#bl"/><use transform="matrix(0.013020833333333332,0,0,0.013020833333333332,48.00781249999999,0)" xlink:href="#bH"/><use transform="matrix(0.013020833333333332,0,0,0.013020833333333332,64.01041666666666,0)" xlink:href="#aE"/><use transform="matrix(0.013020833333333332,0,0,0.013020833333333332,80.01302083333331,0)" xlink:href="#aB"/><use transform="matrix(0.013020833333333332,0,0,0.013020833333333332,96.01562499999997,0)" xlink:href="#aB"/></g><g id="X"><use transform="matrix(0.013020833333333332,0,0,0.013020833333333332,0,0)" xlink:href="#aJ"/><use transform="matrix(0.013020833333333332,0,0,0.013020833333333332,16.002604166666664,0)" xlink:href="#aK"/><use transform="matrix(0.013020833333333332,0,0,0.013020833333333332,32.00520833333333,0)" xlink:href="#aF"/><use transform="matrix(0.013020833333333332,0,0,0.013020833333333332,48.00781249999999,0)" xlink:href="#aG"/><use transform="matrix(0.013020833333333332,0,0,0.013020833333333332,64.01041666666666,0)" xlink:href="#aL"/><use transform="matrix(0.013020833333333332,0,0,0.013020833333333332,80.01302083333331,0)" xlink:href="#aK"/><use transform="matrix(0.013020833333333332,0,0,0.013020833333333332,96.01562499999997,0)" xlink:href="#aC"/><use transform="matrix(0.013020833333333332,0,0,0.013020833333333332,112.01822916666663,0)" xlink:href="#aG"/><use transform="matrix(0.013020833333333332,0,0,0.013020833333333332,128.0208333333333,0)" xlink:href="#bl"/><use transform="matrix(0.013020833333333332,0,0,0.013020833333333332,144.02343749999994,0)" xlink:href="#aH"/></g><path fill="#3a414a" d="M655-135c108 0 195-33 260-74v-336H622v-160h479v572C981-54 839 20 639 20c-388 0-526-306-526-701 0-406 129-689 529-689 261 0 392 137 461 331l-171 56c-47-131-122-231-288-231-281 0-330 245-330 533 0 179 28 314 84 407s142 139 257 139" id="cp"/><g id="Y"><use transform="matrix(0.013020833333333332,0,0,0.013020833333333332,0,0)" xlink:href="#cp"/><use transform="matrix(0.013020833333333332,0,0,0.013020833333333332,16.002604166666664,0)" xlink:href="#aG"/><use transform="matrix(0.013020833333333332,0,0,0.013020833333333332,32.00520833333333,0)" xlink:href="#aJ"/><use transform="matrix(0.013020833333333332,0,0,0.013020833333333332,48.00781249999999,0)" xlink:href="#aE"/></g><g id="Z"><use transform="matrix(0.013020833333333332,0,0,0.013020833333333332,0,0)" xlink:href="#aC"/><use transform="matrix(0.013020833333333332,0,0,0.013020833333333332,16.002604166666664,0)" xlink:href="#aD"/><use transform="matrix(0.013020833333333332,0,0,0.013020833333333332,32.00520833333333,0)" xlink:href="#aE"/></g><g id="aa"><use transform="matrix(0.013020833333333332,0,0,0.013020833333333332,0,0)" xlink:href="#bk"/><use transform="matrix(0.013020833333333332,0,0,0.013020833333333332,16.002604166666664,0)" xlink:href="#aE"/><use transform="matrix(0.013020833333333332,0,0,0.013020833333333332,32.00520833333333,0)" xlink:href="#aB"/><use transform="matrix(0.013020833333333332,0,0,0.013020833333333332,48.00781249999999,0)" xlink:href="#bh"/><use transform="matrix(0.013020833333333332,0,0,0.013020833333333332,64.01041666666666,0)" xlink:href="#bl"/><use transform="matrix(0.013020833333333332,0,0,0.013020833333333332,80.01302083333331,0)" xlink:href="#aH"/><use transform="matrix(0.013020833333333332,0,0,0.013020833333333332,96.01562499999997,0)" xlink:href="#aB"/><use transform="matrix(0.013020833333333332,0,0,0.013020833333333332,112.01822916666663,0)" xlink:href="#aE"/></g><g id="ab"><use transform="matrix(0.013020833333333332,0,0,0.013020833333333332,0,0)" xlink:href="#bc"/><use transform="matrix(0.013020833333333332,0,0,0.013020833333333332,16.002604166666664,0)" xlink:href="#aE"/><use transform="matrix(0.013020833333333332,0,0,0.013020833333333332,32.00520833333333,0)" xlink:href="#aK"/><use transform="matrix(0.013020833333333332,0,0,0.013020833333333332,48.00781249999999,0)" xlink:href="#aL"/></g><g id="ac"><use transform="matrix(0.013020833333333332,0,0,0.013020833333333332,0,0)" xlink:href="#aK"/><use transform="matrix(0.013020833333333332,0,0,0.013020833333333332,16.002604166666664,0)" xlink:href="#bg"/><use transform="matrix(0.013020833333333332,0,0,0.013020833333333332,32.00520833333333,0)" xlink:href="#bl"/><use transform="matrix(0.013020833333333332,0,0,0.013020833333333332,48.00781249999999,0)" xlink:href="#be"/><use transform="matrix(0.013020833333333332,0,0,0.013020833333333332,64.01041666666666,0)" xlink:href="#aC"/></g><path fill="#3a414a" d="M1018 0H810c-67-251-137-496-194-756C558-495 487-250 419 0H211L0-1349h189c48 393 110 772 142 1181 58-262 128-512 197-763h175c69 251 139 500 197 763 37-402 92-789 139-1181h189" id="cq"/><path fill="#3a414a" d="M147 0v-137l681-806H187v-139h844v137L349-139h719V0H147" id="cr"/><g id="ad"><use transform="matrix(0.013020833333333332,0,0,0.013020833333333332,0,0)" xlink:href="#cq"/><use transform="matrix(0.013020833333333332,0,0,0.013020833333333332,16.002604166666664,0)" xlink:href="#aE"/><use transform="matrix(0.013020833333333332,0,0,0.013020833333333332,32.00520833333333,0)" xlink:href="#bg"/><use transform="matrix(0.013020833333333332,0,0,0.013020833333333332,48.00781249999999,0)" xlink:href="#aK"/><use transform="matrix(0.013020833333333332,0,0,0.013020833333333332,64.01041666666666,0)" xlink:href="#aF"/><use transform="matrix(0.013020833333333332,0,0,0.013020833333333332,80.01302083333331,0)" xlink:href="#bI"/><use transform="matrix(0.013020833333333332,0,0,0.013020833333333332,96.01562499999997,0)" xlink:href="#cr"/><use transform="matrix(0.013020833333333332,0,0,0.013020833333333332,112.01822916666663,0)" xlink:href="#aE"/><use transform="matrix(0.013020833333333332,0,0,0.013020833333333332,128.0208333333333,0)" xlink:href="#bk"/><use transform="matrix(0.013020833333333332,0,0,0.013020833333333332,144.02343749999994,0)" xlink:href="#aM"/></g><g id="ae"><use transform="matrix(0.010863466253508055,0,0,0.010863466253508055,0,0)" xlink:href="#ba"/><use transform="matrix(0.010863466253508055,0,0,0.010863466253508055,13.3512000255614,0)" xlink:href="#bb"/></g><g id="af"><use transform="matrix(0.013020833333333332,0,0,0.013020833333333332,0,0)" xlink:href="#cq"/><use transform="matrix(0.013020833333333332,0,0,0.013020833333333332,16.002604166666664,0)" xlink:href="#aE"/><use transform="matrix(0.013020833333333332,0,0,0.013020833333333332,32.00520833333333,0)" xlink:href="#bg"/><use transform="matrix(0.013020833333333332,0,0,0.013020833333333332,48.00781249999999,0)" xlink:href="#aK"/><use transform="matrix(0.013020833333333332,0,0,0.013020833333333332,64.01041666666666,0)" xlink:href="#aF"/><use transform="matrix(0.013020833333333332,0,0,0.013020833333333332,80.01302083333331,0)" xlink:href="#bI"/><use transform="matrix(0.013020833333333332,0,0,0.013020833333333332,96.01562499999997,0)" xlink:href="#cr"/><use transform="matrix(0.013020833333333332,0,0,0.013020833333333332,112.01822916666663,0)" xlink:href="#aE"/><use transform="matrix(0.013020833333333332,0,0,0.013020833333333332,128.0208333333333,0)" xlink:href="#bk"/><use transform="matrix(0.013020833333333332,0,0,0.013020833333333332,144.02343749999994,0)" xlink:href="#aB"/></g><g id="ag"><use transform="matrix(0.013020833333333332,0,0,0.013020833333333332,0,0)" xlink:href="#aB"/><use transform="matrix(0.013020833333333332,0,0,0.013020833333333332,16.002604166666664,0)" xlink:href="#aC"/><use transform="matrix(0.013020833333333332,0,0,0.013020833333333332,32.00520833333333,0)" xlink:href="#bl"/><use transform="matrix(0.013020833333333332,0,0,0.013020833333333332,48.00781249999999,0)" xlink:href="#bk"/><use transform="matrix(0.013020833333333332,0,0,0.013020833333333332,64.01041666666666,0)" xlink:href="#bI"/></g><path fill="#369e3f" d="M761-556V0H467v-556L3-1349h309l300 566 304-566h309" id="cs"/><path fill="#369e3f" d="M1113-274C1038-96 884 20 626 20c-352 0-526-209-526-566 0-358 185-556 530-556 358 0 496 251 499 615H395c5 180 68 319 245 319 102 0 186-45 208-129zM857-663c-6-177-128-307-315-247-94 30-141 121-145 247h460" id="ct"/><path fill="#369e3f" d="M622-916c-112 2-200 14-200 111 0 90 89 101 168 121 234 58 514 77 514 368C1104-4 751 54 434 5 267-21 161-112 121-270l247-37c24 111 113 145 252 141 114-3 226-12 226-124 0-101-103-113-192-134-225-54-490-76-490-351 0-247 201-328 458-328 245 0 413 88 457 292l-249 26c-16-98-92-133-208-131" id="cu"/><g id="ah"><use transform="matrix(0.010863466253508055,0,0,0.010863466253508055,0,0)" xlink:href="#cs"/><use transform="matrix(0.010863466253508055,0,0,0.010863466253508055,13.3512000255614,0)" xlink:href="#ct"/><use transform="matrix(0.010863466253508055,0,0,0.010863466253508055,26.7024000511228,0)" xlink:href="#cu"/></g><path fill="#fff" d="M622-1349c296 4 497 117 497 404 0 282-193 424-485 431H353V0H162v-1349h460zm-15 684c195-3 320-88 320-277 0-184-129-255-328-254H353v531h254" id="cv"/><g id="ai"><use transform="matrix(0.013020833333333332,0,0,0.013020833333333332,0,0)" xlink:href="#cv"/><use transform="matrix(0.013020833333333332,0,0,0.013020833333333332,16.002604166666664,0)" xlink:href="#aQ"/><use transform="matrix(0.013020833333333332,0,0,0.013020833333333332,32.00520833333333,0)" xlink:href="#aW"/><use transform="matrix(0.013020833333333332,0,0,0.013020833333333332,48.00781249999999,0)" xlink:href="#aX"/><use transform="matrix(0.013020833333333332,0,0,0.013020833333333332,64.01041666666666,0)" xlink:href="#aR"/></g><path fill="#fff" d="M334-464v-160h560v160H334" id="cw"/><path fill="#fff" d="M114 20l821-1504h178L296 20H114" id="cx"/><g id="aj"><use transform="matrix(0.013020833333333332,0,0,0.013020833333333332,0,0)" xlink:href="#aX"/><use transform="matrix(0.013020833333333332,0,0,0.013020833333333332,16.002604166666664,0)" xlink:href="#aZ"/><use transform="matrix(0.013020833333333332,0,0,0.013020833333333332,32.00520833333333,0)" xlink:href="#cw"/><use transform="matrix(0.013020833333333332,0,0,0.013020833333333332,48.00781249999999,0)" xlink:href="#aP"/><use transform="matrix(0.013020833333333332,0,0,0.013020833333333332,64.01041666666666,0)" xlink:href="#aQ"/><use transform="matrix(0.013020833333333332,0,0,0.013020833333333332,80.01302083333331,0)" xlink:href="#aQ"/><use transform="matrix(0.013020833333333332,0,0,0.013020833333333332,96.01562499999997,0)" xlink:href="#aZ"/><use transform="matrix(0.013020833333333332,0,0,0.013020833333333332,112.01822916666663,0)" xlink:href="#aQ"/><use transform="matrix(0.013020833333333332,0,0,0.013020833333333332,128.0208333333333,0)" xlink:href="#aU"/><use transform="matrix(0.013020833333333332,0,0,0.013020833333333332,144.02343749999994,0)" xlink:href="#cx"/></g><g id="ak"><use transform="matrix(0.013020833333333332,0,0,0.013020833333333332,0,0)" xlink:href="#aP"/><use transform="matrix(0.013020833333333332,0,0,0.013020833333333332,16.002604166666664,0)" xlink:href="#aQ"/><use transform="matrix(0.013020833333333332,0,0,0.013020833333333332,32.00520833333333,0)" xlink:href="#aQ"/><use transform="matrix(0.013020833333333332,0,0,0.013020833333333332,48.00781249999999,0)" xlink:href="#aZ"/><use transform="matrix(0.013020833333333332,0,0,0.013020833333333332,64.01041666666666,0)" xlink:href="#aQ"/><use transform="matrix(0.013020833333333332,0,0,0.013020833333333332,80.01302083333331,0)" xlink:href="#aU"/></g><linearGradient gradientUnits="userSpaceOnUse" id="al" x1="120" y1="625.31" x2="120" y2="725.31"><stop offset="43.55%" stop-color="#6db1ff"/><stop offset="100%" stop-color="#e81313"/></linearGradient><path fill="#f2f3f5" d="M912-211c-10-84-18-177-18-274v-864h172V0H836L316-1130c7 79 16 167 16 254V0H162v-1349h222" id="cy"/><path fill="#f2f3f5" d="M1018 0H814c-67-224-138-444-200-673C552-442 476-224 407 0H204L21-1082h178c43 310 105 601 126 933 54-225 128-425 193-638h193c63 212 134 415 185 638 22-336 90-622 136-933h176" id="cz"/><g id="am"><use transform="matrix(0.013020833333333332,0,0,0.013020833333333332,0,0)" xlink:href="#cy"/><use transform="matrix(0.013020833333333332,0,0,0.013020833333333332,16.002604166666664,0)" xlink:href="#bL"/><use transform="matrix(0.013020833333333332,0,0,0.013020833333333332,32.00520833333333,0)" xlink:href="#cz"/></g><path fill="#f2f3f5" d="M604-135c236 0 291-142 291-376v-838h190v859c5 340-142 510-480 510-326 0-463-164-463-492v-877h191v851c-3 222 46 363 271 363" id="cA"/><path fill="#f2f3f5" d="M1121-976c0 225-142 341-344 379L1177 0H957L591-575H353V0H162v-1349h482c281 3 477 100 477 373zM633-726c181-1 296-73 296-247 0-149-101-223-304-223H353v470h280" id="cB"/><path fill="#f2f3f5" d="M237 0v-1349h191v1193h672V0H237" id="cC"/><g id="an"><use transform="matrix(0.013020833333333332,0,0,0.013020833333333332,0,0)" xlink:href="#cA"/><use transform="matrix(0.013020833333333332,0,0,0.013020833333333332,16.002604166666664,0)" xlink:href="#cB"/><use transform="matrix(0.013020833333333332,0,0,0.013020833333333332,32.00520833333333,0)" xlink:href="#cC"/></g><g id="ao"><use transform="matrix(0.013020833333333332,0,0,0.013020833333333332,0,0)" xlink:href="#bT"/><use transform="matrix(0.013020833333333332,0,0,0.013020833333333332,16.002604166666664,0)" xlink:href="#bW"/></g><path fill="#f2f3f5" d="M102-681c0-398 126-689 513-689 165 0 291 58 379 174s132 287 132 515c0 353-105 610-380 685 49 143 111 234 276 240 36 1 86-7 115-13v134c-94 24-238 34-327-3-143-59-210-191-259-346-336-41-449-320-449-697zm749 406c94-160 97-656-5-807-57-85-130-132-231-132-104 0-178 47-234 132-101 153-99 655 1 809 57 89 130 138 232 138 109 0 184-49 237-140" id="cD"/><g id="ap"><use transform="matrix(0.013020833333333332,0,0,0.013020833333333332,0,0)" xlink:href="#cD"/><use transform="matrix(0.013020833333333332,0,0,0.013020833333333332,16.002604166666664,0)" xlink:href="#bN"/><use transform="matrix(0.013020833333333332,0,0,0.013020833333333332,32.00520833333333,0)" xlink:href="#bP"/><use transform="matrix(0.013020833333333332,0,0,0.013020833333333332,48.00781249999999,0)" xlink:href="#bO"/></g><path fill="#f2f3f5" d="M615-1370c385 0 542 273 542 691 0 230-47 404-140 522S790 20 615 20C231 20 72-262 72-679c0-419 158-691 543-691zM797-330c77-133 78-564 0-695-44-73-101-113-182-113s-139 40-183 114c-79 133-78 560 0 694 45 77 102 118 183 118s138-41 182-118" id="cE"/><path fill="#f2f3f5" d="M427-171c3 195 2 397 2 596H148V-846c1-83-4-168-8-236h272c10 49 14 118 15 176h4c59-114 151-197 316-197 291 0 385 259 385 560 0 243-65 433-220 521-50 28-109 42-176 42-162-2-253-78-309-191zm69-661c-91 113-92 463-1 586 46 62 145 101 225 54 96-57 118-191 119-351 0-123-18-215-53-276-46-82-128-115-220-74-25 12-48 33-70 61" id="cF"/><path fill="#f2f3f5" d="M794-190h353V0H118v-190h395v-702H223v-190h571v892zM513-1277v-207h281v207H513" id="cG"/><path fill="#f2f3f5" d="M768-1103c247 0 336 167 336 416V0H824v-619c-3-164-24-273-171-273-164 0-229 142-229 312V0H143c-4-359 9-736-8-1082h268c7 63 12 146 13 215h4c67-145 160-236 348-236" id="cH"/><g id="aq"><use transform="matrix(0.008680555555555556,0,0,0.008680555555555556,0,0)" xlink:href="#cE"/><use transform="matrix(0.008680555555555556,0,0,0.008680555555555556,10.668402777777779,0)" xlink:href="#cF"/><use transform="matrix(0.008680555555555556,0,0,0.008680555555555556,21.336805555555557,0)" xlink:href="#cf"/><use transform="matrix(0.008680555555555556,0,0,0.008680555555555556,32.005208333333336,0)" xlink:href="#cG"/><use transform="matrix(0.008680555555555556,0,0,0.008680555555555556,42.673611111111114,0)" xlink:href="#ce"/><use transform="matrix(0.008680555555555556,0,0,0.008680555555555556,53.34201388888889,0)" xlink:href="#cH"/></g><path fill="#e81313" d="M615-1370c385 0 542 273 542 691 0 358-114 602-378 679 41 115 114 187 266 186 41 0 86-7 123-13v202c-117 27-296 45-408-1C608 311 534 171 482 7 194-58 72-308 72-679c0-419 158-691 543-691zM797-330c77-133 78-564 0-695-44-73-101-113-182-113s-139 40-183 114c-79 133-78 560 0 694 45 77 102 118 183 118s138-41 182-118" id="cI"/><path fill="#e81313" d="M471 20c-247 0-336-169-336-415v-687h281v607c4 148 31 285 172 285 152 0 207-150 207-312v-580h281c4 359-9 736 8 1082H816c-7-63-11-146-12-215h-5C736-76 644 20 471 20" id="cJ"/><path fill="#e81313" d="M794-190h353V0H118v-190h395v-702H223v-190h571v892zM513-1277v-207h281v207H513" id="cK"/><g id="ar"><use transform="matrix(0.010863466253508055,0,0,0.010863466253508055,0,0)" xlink:href="#cI"/><use transform="matrix(0.010863466253508055,0,0,0.010863466253508055,13.3512000255614,0)" xlink:href="#cJ"/><use transform="matrix(0.010863466253508055,0,0,0.010863466253508055,26.7024000511228,0)" xlink:href="#cK"/><use transform="matrix(0.010863466253508055,0,0,0.010863466253508055,40.053600076684205,0)" xlink:href="#bq"/></g><path fill="#6db1ff" d="M865-312c-44-312-23-686-28-1037h257V0H748L364-1010c44 304 24 668 28 1010H135v-1349h337" id="cL"/><path fill="#6db1ff" d="M1113-274C1038-96 884 20 626 20c-352 0-526-209-526-566 0-358 185-556 530-556 358 0 496 251 499 615H395c5 180 68 319 245 319 102 0 186-45 208-129zM857-663c-6-177-128-307-315-247-94 30-141 121-145 247h460" id="cM"/><path fill="#6db1ff" d="M1028 0H784c-56-191-119-378-170-573C562-377 495-191 437 0H194L11-1082h228c32 239 67 472 95 714 4 40 7 80 7 119 53-195 119-378 177-568h193c56 190 120 371 169 568-1-79 11-158 21-226l91-607h226" id="cN"/><g id="as"><use transform="matrix(0.010863466253508055,0,0,0.010863466253508055,0,0)" xlink:href="#cL"/><use transform="matrix(0.010863466253508055,0,0,0.010863466253508055,13.3512000255614,0)" xlink:href="#cM"/><use transform="matrix(0.010863466253508055,0,0,0.010863466253508055,26.7024000511228,0)" xlink:href="#cN"/></g><path fill="#6db1ff" d="M1100-543c2 361-147 563-501 563-342 0-470-199-470-548v-821h295v818c3 172 13 322 183 320 173-2 198-150 198-330v-808h295v806" id="cO"/><path fill="#6db1ff" d="M1157-949c0 209-118 316-279 368L1227 0H895L605-515H432V0H137v-1349h494c317-2 526 111 526 400zM608-744c158 1 248-51 252-193 5-207-223-184-428-183v376h176" id="cP"/><path fill="#6db1ff" d="M211 0v-1349h295v1121h616V0H211" id="cQ"/><g id="at"><use transform="matrix(0.010863466253508055,0,0,0.010863466253508055,0,0)" xlink:href="#cO"/><use transform="matrix(0.010863466253508055,0,0,0.010863466253508055,13.3512000255614,0)" xlink:href="#cP"/><use transform="matrix(0.010863466253508055,0,0,0.010863466253508055,26.7024000511228,0)" xlink:href="#cQ"/></g><path fill="#f2f3f5" d="M865-312c-44-312-23-686-28-1037h257V0H748L364-1010c44 304 24 668 28 1010H135v-1349h337" id="cR"/><g id="au"><use transform="matrix(0.008680555555555556,0,0,0.008680555555555556,0,0)" xlink:href="#cR"/><use transform="matrix(0.008680555555555556,0,0,0.008680555555555556,10.668402777777779,0)" xlink:href="#ce"/></g><path fill="#f2f3f5" d="M137 0v-1349h968v228H432v324h612v228H432v341h714V0H137" id="cS"/><g id="av"><use transform="matrix(0.008680555555555556,0,0,0.008680555555555556,0,0)" xlink:href="#cS"/><use transform="matrix(0.008680555555555556,0,0,0.008680555555555556,10.668402777777779,0)" xlink:href="#ch"/><use transform="matrix(0.008680555555555556,0,0,0.008680555555555556,21.336805555555557,0)" xlink:href="#ch"/><use transform="matrix(0.008680555555555556,0,0,0.008680555555555556,32.005208333333336,0)" xlink:href="#ce"/><use transform="matrix(0.008680555555555556,0,0,0.008680555555555556,42.673611111111114,0)" xlink:href="#ch"/><use transform="matrix(0.008680555555555556,0,0,0.008680555555555556,53.34201388888889,0)" xlink:href="#ci"/></g></defs></g></svg>